<svg xmlns="http://www.w3.org/2000/svg" xmlns:xlink="http://www.w3.org/1999/xlink" width="385" height="175" version="1.1" viewBox="0 0 385 175"><title>Macbook Pro Copy 2 + Line Copy Copy + object + object + object + xxu</title><desc>Created with Sketch.</desc><defs><rect id="path-1" width="388" height="179" x="0" y="0"/></defs><g id="Page-1" fill="none" fill-rule="evenodd" stroke="none" stroke-width="1"><g id="Artboard-7" transform="translate(-483.000000, -302.000000)"><g id="Macbook-Pro-Copy-2-+-Line-Copy-Copy-+-object-+-object-+-object-+-xxu" transform="translate(480.000000, 298.000000)"><mask id="mask-2" fill="#fff"><use xlink:href="#path-1"/></mask><use id="Mask" fill="#D8D8D8" opacity="0" xlink:href="#path-1"/><g mask="url(#mask-2)"><g transform="translate(3.712919, 4.637306)"><g id="Macbook-Pro-Copy-2-+-Line-Copy-Copy" fill="none" stroke-width="1"><g id="Macbook-Pro-Copy-2" fill="#F3F3F3"><rect id="Rectangle-Copy" width="529.091" height="9.696" x="0" y="0" rx="5.003"/></g></g><rect id="Rectangle-780" width="36.201" height="10.202" x="0" y="0" fill="#F3F3F3"/><g id="object-+-object-+-object" fill="none" stroke-width="1" opacity=".648" transform="translate(4.641148, 2.782383)"><ellipse id="object" cx="113.466" cy="92.94" fill="#9B9B9B" rx="1.949" ry="1.92"/><path id="object" fill="#9B9B9B" d="M119.442243,94.8602716 C120.518606,94.8602716 121.391171,94.0007506 121.391171,92.9404777 C121.391171,91.8802048 120.518606,91.0206837 119.442243,91.0206837 C118.36588,91.0206837 117.493315,91.8802048 117.493315,92.9404777 C117.493315,94.0007506 118.36588,94.8602716 119.442243,94.8602716 Z"/><ellipse id="object" cx="125.419" cy="92.94" fill="#9B9B9B" rx="1.949" ry="1.92"/><ellipse id="Oval-204" cx="1.856" cy="1.855" fill="#C6C6C6" rx="1.856" ry="1.855"/><ellipse id="Oval-204" cx="7.426" cy="1.855" fill="#C6C6C6" rx="1.856" ry="1.855"/><ellipse id="Oval-204" cx="12.995" cy="1.855" fill="#C6C6C6" rx="1.856" ry="1.855"/></g><g id="Tablet_App" fill="none" stroke-width="1" transform="translate(0.000000, 8.347150)"><rect id="Rectangle-216" width="7.029" height="2.35" x="107.78" y="97.136" fill="#D8D8D8"/><rect id="Rectangle-207" width="292.88" height="291.346" x="91.379" y=".804" fill="#D4D4D4"/><rect id="Rectangle-194" width="281.165" height="42.292" x="98.408" y="5.503" fill="#FFF"/><rect id="Rectangle-195" width="48.032" height="49.341" x="98.408" y="54.844" fill="#FFF"/><rect id="Rectangle-209" width="281.165" height="34.069" x="98.401" y="104.185" fill="#FFF" opacity=".695"/><rect id="Rectangle-209-Copy" width="281.165" height="34.069" x="98.401" y="138.254" fill="#FFF" opacity=".856"/><rect id="Rectangle-195-Copy" width="48.032" height="49.341" x="145.269" y="54.844" fill="#FFF"/><rect id="Rectangle-195-Copy-2" width="48.032" height="49.341" x="192.13" y="54.844" fill="#FFF"/><rect id="Rectangle-195-Copy-3" width="48.032" height="49.341" x="238.99" y="54.844" fill="#FFF"/><rect id="Rectangle-195-Copy-4" width="48.032" height="49.341" x="285.851" y="54.844" fill="#FFF"/><rect id="Rectangle-195-Copy-5" width="46.861" height="49.341" x="332.712" y="54.844" fill="#FFF"/><g id="Group-8" transform="translate(0.000000, 0.803800)"><rect id="Rectangle-191" width="91.379" height="291.346" x="0" y="0" fill="#373737"/><rect id="Rectangle-191" width="91.379" height="23.496" x="0" y="0" fill="#36BF38"/></g><g id="Group-12" transform="translate(238.723793, 147.899136) scale(-1, -1) translate(-238.723793, -147.899136) translate(104.805568, 111.480829)"><ellipse id="Oval-68" cx="4.673" cy="52.604" fill="#1B8AF3" rx="4.002" ry="4.046"/><ellipse id="Oval-68-Copy" cx="63.413" cy="25.628" fill="#1B8AF3" rx="4.002" ry="4.046"/><ellipse id="Oval-68-Copy-2" cx="130.108" cy="68.79" fill="#1B8AF3" rx="4.002" ry="4.046"/><ellipse id="Oval-68-Copy-3" cx="196.804" cy="25.628" fill="#1B8AF3" rx="4.002" ry="4.046"/><path id="Path-66" stroke="#1B8AF3" stroke-width="2.682" d="M3.97776893,52.6042218 L63.4126679,25.6276978 L129.940456,68.7901363 L196.236607,25.6276978 L263.858681,4.0464786"/></g><rect id="Rectangle-201" width="28.117" height="7.049" x="107.78" y="71.291" fill="#929292" opacity=".379"/><rect id="Rectangle-201" width="28.117" height="7.049" x="112.466" y="21.95" fill="#929292" opacity=".414"/><rect id="Rectangle-201" width="28.117" height="7.049" x="203.845" y="21.95" fill="#929292" opacity=".414"/><ellipse id="Oval-73" cx="156.984" cy="26.649" stroke="#1B8AF3" stroke-width="2.353" opacity=".571" rx="11.715" ry="11.748"/><ellipse id="Oval-73" cx="248.363" cy="26.649" stroke="#E88B44" stroke-width="2.353" opacity=".571" rx="11.715" ry="11.748"/><rect id="Rectangle-201-Copy" width="28.117" height="7.049" x="154.641" y="71.291" fill="#929292" opacity=".379"/><rect id="Rectangle-201-Copy-2" width="28.117" height="7.049" x="201.502" y="71.291" fill="#929292" opacity=".379"/><rect id="Rectangle-201-Copy-3" width="28.117" height="7.049" x="248.363" y="71.291" fill="#929292" opacity=".379"/><rect id="Rectangle-201-Copy-4" width="28.117" height="7.049" x="295.223" y="71.291" fill="#929292" opacity=".379"/><rect id="Rectangle-201-Copy-5" width="28.117" height="7.049" x="342.084" y="71.291" fill="#929292" opacity=".379"/><rect id="Rectangle-212" width="11.715" height="9.398" x="173.385" y="24.299" fill="#6CACE8"/><rect id="Rectangle-212" width="11.715" height="4.699" x="173.385" y="17.251" fill="#BBB"/><rect id="Rectangle-212" width="11.715" height="4.699" x="264.764" y="17.251" fill="#BBB"/><path id="Line" stroke="#979797" stroke-linecap="square" stroke-width="2.353" d="M298.737958,16.0759931 L298.737958,37.2221071" opacity=".324"/><path id="Line" stroke="#979797" stroke-linecap="square" stroke-width="2.353" d="M322.168386,16.0759931 L322.168386,37.2221071" opacity=".324"/><path id="Line" stroke="#979797" stroke-linecap="square" stroke-width="2.353" d="M345.598815,16.0759931 L345.598815,37.2221071" opacity=".324"/><path id="Line" stroke="#979797" stroke-linecap="square" stroke-width="2.353" d="M369.029243,16.0759931 L369.029243,37.2221071" opacity=".324"/><rect id="Rectangle-212-Copy" width="11.715" height="9.398" x="264.764" y="24.299" fill="#E1AC83"/><rect id="Rectangle-216" width="7.029" height="2.35" x="105.437" y="97.136" fill="#6ABA70"/><rect id="Rectangle-216" width="7.029" height="4.699" x="114.809" y="94.787" fill="#6ABA70"/><rect id="Rectangle-216" width="7.029" height="11.748" x="124.181" y="87.738" fill="#6ABA70"/><rect id="Rectangle-216" width="7.029" height="9.398" x="133.553" y="90.087" fill="#6ABA70"/><g id="Group-9" fill="#6ABA70" transform="translate(169.870604, 93.611744) scale(-1, 1) translate(-169.870604, -93.611744) translate(152.297783, 87.737824)"><rect id="Rectangle-216" width="7.029" height="2.35" x="0" y="9.398"/><rect id="Rectangle-216" width="7.029" height="4.699" x="9.372" y="7.049"/><rect id="Rectangle-216" width="7.029" height="11.748" x="18.744" y="0"/><rect id="Rectangle-216" width="7.029" height="9.398" x="28.117" y="2.35"/></g><rect id="Rectangle-216" width="7.029" height="2.35" x="199.159" y="97.136" fill="#6ABA70"/><rect id="Rectangle-216" width="7.029" height="9.398" x="208.531" y="90.087" fill="#6ABA70"/><rect id="Rectangle-216" width="7.029" height="4.699" x="217.903" y="94.787" fill="#6ABA70"/><rect id="Rectangle-216" width="7.029" height="9.398" x="227.275" y="90.087" fill="#6ABA70"/><rect id="Rectangle-216" width="7.029" height="2.35" x="246.019" y="97.136" fill="#6ABA70"/><rect id="Rectangle-216" width="7.029" height="7.049" x="255.392" y="92.437" fill="#6ABA70"/><rect id="Rectangle-216" width="7.029" height="7.049" x="264.764" y="92.437" fill="#6ABA70"/><rect id="Rectangle-216" width="7.029" height="9.398" x="274.136" y="90.087" fill="#6ABA70"/><rect id="Rectangle-216" width="7.029" height="9.398" x="292.88" y="90.087" fill="#6ABA70"/><rect id="Rectangle-216" width="7.029" height="7.049" x="302.253" y="92.437" fill="#6ABA70"/><rect id="Rectangle-216" width="7.029" height="11.748" x="311.625" y="87.738" fill="#6ABA70"/><rect id="Rectangle-216" width="7.029" height="9.398" x="320.997" y="90.087" fill="#6ABA70"/><rect id="Rectangle-216" width="7.029" height="2.35" x="339.741" y="97.136" fill="#6ABA70"/><rect id="Rectangle-216" width="7.029" height="4.699" x="349.113" y="94.787" fill="#6ABA70"/><rect id="Rectangle-216" width="7.029" height="2.35" x="358.486" y="97.136" fill="#6ABA70"/><rect id="Rectangle-216" width="7.029" height="11.748" x="367.858" y="87.738" fill="#6ABA70"/><ellipse id="Oval-75" cx="11.715" cy="36.047" fill="#D8D8D8" opacity=".297" rx="7.029" ry="7.049"/><rect id="Rectangle-266" width="35.146" height="4.699" x="23.43" y="33.698" fill="#D8D8D8" opacity=".297"/><ellipse id="Oval-75" cx="11.715" cy="12.552" fill="#FFF" opacity=".297" rx="7.029" ry="7.049"/><rect id="Rectangle-266" width="35.146" height="4.699" x="23.43" y="10.202" fill="#FFF" opacity=".297"/><ellipse id="Oval-75" cx="11.715" cy="59.543" fill="#D8D8D8" opacity=".297" rx="7.029" ry="7.049"/><rect id="Rectangle-266" width="56.233" height="4.699" x="23.43" y="57.193" fill="#D8D8D8" opacity=".297"/><ellipse id="Oval-75" cx="11.715" cy="83.039" fill="#D8D8D8" opacity=".297" rx="7.029" ry="7.049"/><rect id="Rectangle-266" width="44.518" height="4.699" x="23.43" y="80.689" fill="#D8D8D8" opacity=".297"/><ellipse id="Oval-75" cx="11.715" cy="106.534" fill="#D8D8D8" opacity=".297" rx="7.029" ry="7.049"/><rect id="Rectangle-266" width="44.518" height="4.699" x="23.43" y="104.185" fill="#D8D8D8" opacity=".297"/><ellipse id="Oval-75" cx="11.715" cy="130.03" fill="#D8D8D8" opacity=".297" rx="7.029" ry="7.049"/><rect id="Rectangle-266" width="35.146" height="4.699" x="23.43" y="127.68" fill="#D8D8D8" opacity=".297"/><ellipse id="Oval-75" cx="11.715" cy="153.526" fill="#D8D8D8" opacity=".297" rx="7.029" ry="7.049"/><rect id="Rectangle-266" width="49.204" height="4.699" x="23.43" y="151.176" fill="#D8D8D8" opacity=".297"/></g></g></g></g></g></g></svg>