<svg xmlns="http://www.w3.org/2000/svg" xmlns:xlink="http://www.w3.org/1999/xlink" width="331" height="168" version="1.1" viewBox="0 0 331 168"><title>Group 7</title><desc>Created with Sketch.</desc><defs><rect id="path-1" width="339" height="188" x="0" y="0"/><filter id="filter-3" width="200%" height="200%" x="-50%" y="-50%" filterUnits="objectBoundingBox"><feOffset dx="0" dy="2" in="SourceAlpha" result="shadowOffsetOuter1"/><feGaussianBlur in="shadowOffsetOuter1" result="shadowBlurOuter1" stdDeviation="4"/><feColorMatrix in="shadowBlurOuter1" result="shadowMatrixOuter1" type="matrix" values="0 0 0 0 0 0 0 0 0 0 0 0 0 0 0 0 0 0 0.35 0"/><feMerge><feMergeNode in="shadowMatrixOuter1"/><feMergeNode in="SourceGraphic"/></feMerge></filter><filter id="filter-4" width="200%" height="200%" x="-50%" y="-50%" filterUnits="objectBoundingBox"><feOffset dx="0" dy="2" in="SourceAlpha" result="shadowOffsetOuter1"/><feGaussianBlur in="shadowOffsetOuter1" result="shadowBlurOuter1" stdDeviation="4"/><feColorMatrix in="shadowBlurOuter1" result="shadowMatrixOuter1" type="matrix" values="0 0 0 0 0 0 0 0 0 0 0 0 0 0 0 0 0 0 0.35 0"/><feMerge><feMergeNode in="shadowMatrixOuter1"/><feMergeNode in="SourceGraphic"/></feMerge></filter></defs><g id="Page-1" fill="none" fill-rule="evenodd" stroke="none" stroke-width="1"><g id="Artboard-7" transform="translate(-57.000000, -314.000000)"><g id="Group-7" transform="translate(54.000000, 294.000000)"><mask id="mask-2" fill="#fff"><use xlink:href="#path-1"/></mask><use id="Mask" xlink:href="#path-1"/><g id="Group-10" mask="url(#mask-2)"><g><g transform="translate(11.114754, 20.023669)"><g id="Group-5" transform="translate(198.166484, 90.662722) rotate(-90.000000) translate(-198.166484, -90.662722) translate(107.594652, -33.623261)"><rect id="Rectangle-188" width="181.144" height="248.572" x="0" y="0" fill="#FFF" rx="8.404"/><ellipse id="Oval-68" cx="91.172" cy="235.363" fill="#E3E3E3" stroke="#F7F7F7" stroke-width="1.201" rx="5.998" ry="6.004"/><rect id="Rectangle-189" width="164.349" height="200.539" x="7.198" y="24.017" fill="#000"/><ellipse id="Oval-66" cx="89.972" cy="13.209" fill="#000" rx="2.399" ry="2.402"/></g><g id="Group-6" filter="url(#filter-3)" transform="translate(0.000000, 28.341079)"><g id="Group-4"><rect id="Rectangle-204" width="81.575" height="168.116" x="0" y="0" fill="#FFF" rx="12.006"/><rect id="Rectangle-205" width="76.776" height="128.489" x="2.399" y="19.213" fill="#000"/><rect id="Rectangle-206" width="14.396" height="2.402" x="33.59" y="9.607" fill="#000" rx="120.057"/><ellipse id="Oval-70" cx="40.787" cy="4.803" fill="#000" rx="1.2" ry="1.201"/><ellipse id="Oval-70" cx="26.992" cy="10.687" fill="#000" rx="1.799" ry="1.801"/></g></g><g id="Tablet_App" opacity=".844" transform="translate(99.197264, 10.807477)"><rect id="Rectangle-245" width="8.448" height="2.402" x="55.515" y="147.702" fill="#4C7481"/><rect id="Rectangle-216" width="3.621" height="1.201" x="55.515" y="62.443" fill="#D8D8D8"/><rect id="Rectangle-207" width="150.857" height="148.903" x="47.067" y="13.209" fill="#D4D4D4"/><rect id="Rectangle-190" width="197.924" height="13.209" x="0" y="0" fill="#FFF"/><rect id="Rectangle-194" width="144.822" height="21.615" x="50.688" y="15.611" fill="#FFF"/><rect id="Rectangle-195" width="24.74" height="25.217" x="50.688" y="40.828" fill="#FFF"/><rect id="Rectangle-209" width="144.822" height="17.412" x="50.684" y="66.046" fill="#FFF" opacity=".695"/><rect id="Rectangle-209-Copy" width="144.822" height="17.412" x="50.684" y="83.458" fill="#FFF" opacity=".856"/><rect id="Rectangle-209-Copy-2" width="144.822" height="17.412" x="50.684" y="100.87" fill="#FFF" opacity=".695"/><rect id="Rectangle-209-Copy-3" width="144.822" height="17.412" x="50.684" y="118.282" fill="#FFF" opacity=".856"/><rect id="Rectangle-195-Copy" width="24.74" height="25.217" x="74.825" y="40.828" fill="#FFF"/><rect id="Rectangle-195-Copy-2" width="24.74" height="25.217" x="98.962" y="40.828" fill="#FFF"/><rect id="Rectangle-195-Copy-3" width="24.74" height="25.217" x="123.099" y="40.828" fill="#FFF"/><rect id="Rectangle-195-Copy-4" width="24.74" height="25.217" x="147.236" y="40.828" fill="#FFF"/><rect id="Rectangle-195-Copy-5" width="24.137" height="25.217" x="171.373" y="40.828" fill="#FFF"/><g id="Group-8" transform="translate(0.000000, 13.209138)"><rect id="Rectangle-191" width="47.067" height="148.903" x="0" y="0" fill="#373737"/><rect id="Rectangle-193" width="47.067" height="33.623" x="0" y="115.28" fill="#424242"/><rect id="Rectangle-191" width="47.067" height="12.008" x="0" y="0" fill="#36BF38"/></g><g id="Group-12" transform="translate(53.983211, 79.254830)"><ellipse id="Oval-68" cx="2.407" cy="26.885" fill="#1B8AF3" rx="2.061" ry="2.068"/><ellipse id="Oval-68-Copy" cx="32.663" cy="13.098" fill="#1B8AF3" rx="2.061" ry="2.068"/><ellipse id="Oval-68-Copy-2" cx="67.016" cy="35.158" fill="#1B8AF3" rx="2.061" ry="2.068"/><ellipse id="Oval-68-Copy-3" cx="101.37" cy="13.098" fill="#1B8AF3" rx="2.061" ry="2.068"/><ellipse id="Oval-68-Copy-4" cx="135.723" cy="2.068" fill="#1B8AF3" rx="2.061" ry="2.068"/><path id="Path-66" stroke="#1B8AF3" stroke-width="1.369" d="M2.04886767,26.8852663 L32.6625722,13.0979503 L66.9296794,35.157656 L101.077475,13.0979503 L135.908227,2.06809741"/></g><rect id="Rectangle-201" width="14.482" height="3.602" x="55.515" y="49.234" fill="#929292" opacity=".379"/><rect id="Rectangle-201" width="14.482" height="3.602" x="57.929" y="24.017" fill="#929292" opacity=".414"/><rect id="Rectangle-201" width="14.482" height="3.602" x="104.996" y="24.017" fill="#929292" opacity=".414"/><ellipse id="Oval-73" cx="80.859" cy="26.418" stroke="#1B8AF3" stroke-width="1.201" opacity=".571" rx="6.034" ry="6.004"/><ellipse id="Oval-73" cx="127.926" cy="26.418" stroke="#E88B44" stroke-width="1.201" opacity=".571" rx="6.034" ry="6.004"/><rect id="Rectangle-201-Copy" width="14.482" height="3.602" x="79.652" y="49.234" fill="#929292" opacity=".379"/><rect id="Rectangle-201-Copy-2" width="14.482" height="3.602" x="103.789" y="49.234" fill="#929292" opacity=".379"/><rect id="Rectangle-201-Copy-3" width="14.482" height="3.602" x="127.926" y="49.234" fill="#929292" opacity=".379"/><rect id="Rectangle-201-Copy-4" width="14.482" height="3.602" x="152.064" y="49.234" fill="#929292" opacity=".379"/><rect id="Rectangle-201-Copy-5" width="14.482" height="3.602" x="176.201" y="49.234" fill="#929292" opacity=".379"/><rect id="Rectangle-212" width="6.034" height="4.803" x="89.307" y="25.217" fill="#6CACE8"/><rect id="Rectangle-212" width="6.034" height="2.402" x="89.307" y="21.615" fill="#BBB"/><rect id="Rectangle-212" width="6.034" height="2.402" x="136.374" y="21.615" fill="#BBB"/><path id="Line" stroke="#979797" stroke-linecap="square" stroke-width="1.201" d="M153.873831,21.0145382 L153.873831,31.822015" opacity=".324"/><path id="Line" stroke="#979797" stroke-linecap="square" stroke-width="1.201" d="M165.942367,21.0145382 L165.942367,31.822015" opacity=".324"/><path id="Line" stroke="#979797" stroke-linecap="square" stroke-width="1.201" d="M178.010902,21.0145382 L178.010902,31.822015" opacity=".324"/><path id="Line" stroke="#979797" stroke-linecap="square" stroke-width="1.201" d="M190.079438,21.0145382 L190.079438,31.822015" opacity=".324"/><rect id="Rectangle-212-Copy" width="6.034" height="4.803" x="136.374" y="25.217" fill="#E1AC83"/><rect id="Rectangle-216" width="3.621" height="1.201" x="54.308" y="62.443" fill="#6ABA70"/><rect id="Rectangle-216" width="3.621" height="2.402" x="59.136" y="61.242" fill="#6ABA70"/><rect id="Rectangle-216" width="3.621" height="6.004" x="63.963" y="57.64" fill="#6ABA70"/><rect id="Rectangle-216" width="3.621" height="4.803" x="68.791" y="58.841" fill="#6ABA70"/><g id="Group-9" fill="#6ABA70" transform="translate(87.496884, 60.641953) scale(-1, 1) translate(-87.496884, -60.641953) translate(78.445482, 57.639876)"><rect id="Rectangle-216" width="3.621" height="1.201" x="0" y="4.803"/><rect id="Rectangle-216" width="3.621" height="2.402" x="4.827" y="3.602"/><rect id="Rectangle-216" width="3.621" height="6.004" x="9.655" y="0"/><rect id="Rectangle-216" width="3.621" height="4.803" x="14.482" y="1.201"/></g><rect id="Rectangle-216" width="3.621" height="1.201" x="102.583" y="62.443" fill="#6ABA70"/><rect id="Rectangle-216" width="3.621" height="4.803" x="107.41" y="58.841" fill="#6ABA70"/><rect id="Rectangle-216" width="3.621" height="2.402" x="112.237" y="61.242" fill="#6ABA70"/><rect id="Rectangle-216" width="3.621" height="4.803" x="117.065" y="58.841" fill="#6ABA70"/><rect id="Rectangle-216" width="3.621" height="1.201" x="126.72" y="62.443" fill="#6ABA70"/><rect id="Rectangle-216" width="3.621" height="3.602" x="131.547" y="60.042" fill="#6ABA70"/><rect id="Rectangle-216" width="3.621" height="3.602" x="136.374" y="60.042" fill="#6ABA70"/><rect id="Rectangle-216" width="3.621" height="4.803" x="141.202" y="58.841" fill="#6ABA70"/><rect id="Rectangle-216" width="3.621" height="4.803" x="150.857" y="58.841" fill="#6ABA70"/><rect id="Rectangle-216" width="3.621" height="3.602" x="155.684" y="60.042" fill="#6ABA70"/><rect id="Rectangle-216" width="3.621" height="6.004" x="160.512" y="57.64" fill="#6ABA70"/><rect id="Rectangle-216" width="3.621" height="4.803" x="165.339" y="58.841" fill="#6ABA70"/><rect id="Rectangle-216" width="3.621" height="1.201" x="174.994" y="62.443" fill="#6ABA70"/><rect id="Rectangle-216" width="3.621" height="2.402" x="179.821" y="61.242" fill="#6ABA70"/><rect id="Rectangle-216" width="3.621" height="1.201" x="184.649" y="62.443" fill="#6ABA70"/><rect id="Rectangle-216" width="3.621" height="6.004" x="189.476" y="57.64" fill="#6ABA70"/><g id="Group-11" transform="translate(50.384330, 135.693875)"><rect id="Rectangle-241" width="35.923" height="24.017" x=".294" y="0" fill="#424242"/><rect id="Rectangle-201" width="14.019" height="2.402" x="10.808" y="6.004" fill="#F6F6F6" opacity=".556"/><rect id="Rectangle-241-Copy" width="35.923" height="24.017" x="36.509" y="0" fill="#424242"/><rect id="Rectangle-241-Copy-2" width="35.923" height="24.017" x="72.724" y="0" fill="#424242"/><rect id="Rectangle-241-Copy-3" width="35.923" height="24.017" x="108.94" y="0" fill="#424242"/><rect id="Rectangle-246" width="10.514" height="2.402" x="2.63" y="13.209" fill="#59C2DF"/><rect id="Rectangle-246-Copy" width="10.514" height="2.402" x="13.144" y="13.209" fill="#6BC06B"/><rect id="Rectangle-246-Copy-2" width="15.187" height="2.402" x="18.986" y="13.209" fill="#FD8C35"/><rect id="Rectangle-246" width="10.514" height="2.402" x="38.846" y="13.209" fill="#59C2DF"/><rect id="Rectangle-246-Copy" width="10.514" height="2.402" x="49.36" y="13.209" fill="#6BC06B"/><rect id="Rectangle-246-Copy-2" width="10.514" height="2.402" x="59.874" y="13.209" fill="#FD8C35"/><rect id="Rectangle-246" width="10.514" height="2.402" x="75.061" y="13.209" fill="#59C2DF"/><rect id="Rectangle-246-Copy" width="10.514" height="2.402" x="85.575" y="13.209" fill="#6BC06B"/><path id="Rectangle-246-Copy-2" fill="#FD8C35" d="M89.0796113,13.2091383 L98.8148968,13.2091383 L106.603125,13.2091383 L106.603125,15.6107998 L89.0796113,15.6107998 L89.0796113,13.2091383 Z"/><rect id="Rectangle-246" width="10.514" height="2.402" x="111.276" y="13.209" fill="#59C2DF"/><rect id="Rectangle-246-Copy" width="10.514" height="2.402" x="121.79" y="13.209" fill="#6BC06B"/><rect id="Rectangle-246-Copy-2" width="10.514" height="2.402" x="132.304" y="13.209" fill="#FD8C35"/><rect id="Rectangle-201" width="14.019" height="2.402" x="47.023" y="6.004" fill="#F6F6F6" opacity=".556"/><rect id="Rectangle-201" width="14.019" height="2.402" x="83.238" y="6.004" fill="#F6F6F6" opacity=".556"/><rect id="Rectangle-201" width="14.019" height="2.402" x="119.454" y="6.004" fill="#F6F6F6" opacity=".556"/><rect id="Rectangle-201" width="14.019" height="2.402" x="10.808" y="18.012" fill="#FD8C35" opacity=".556"/><rect id="Rectangle-201" width="14.019" height="2.402" x="47.023" y="18.012" fill="#59C2DF" opacity=".556"/><rect id="Rectangle-201" width="14.019" height="2.402" x="83.238" y="18.012" fill="#FD8C35" opacity=".556"/><rect id="Rectangle-201" width="14.019" height="2.402" x="119.454" y="18.012" fill="#6BC06B" opacity=".556"/></g><ellipse id="Oval-75" cx="6.034" cy="31.222" fill="#D8D8D8" opacity=".297" rx="3.621" ry="3.602"/><rect id="Rectangle-266" width="18.103" height="2.402" x="12.069" y="30.021" fill="#D8D8D8" opacity=".297"/><ellipse id="Oval-75" cx="6.034" cy="19.213" fill="#FFF" opacity=".297" rx="3.621" ry="3.602"/><rect id="Rectangle-266" width="18.103" height="2.402" x="12.069" y="18.012" fill="#FFF" opacity=".297"/><ellipse id="Oval-75" cx="6.034" cy="43.23" fill="#D8D8D8" opacity=".297" rx="3.621" ry="3.602"/><rect id="Rectangle-266" width="28.964" height="2.402" x="12.069" y="42.029" fill="#D8D8D8" opacity=".297"/><ellipse id="Oval-75" cx="6.034" cy="55.238" fill="#D8D8D8" opacity=".297" rx="3.621" ry="3.602"/><rect id="Rectangle-266" width="22.93" height="2.402" x="12.069" y="54.037" fill="#D8D8D8" opacity=".297"/><ellipse id="Oval-75" cx="6.034" cy="67.247" fill="#D8D8D8" opacity=".297" rx="3.621" ry="3.602"/><rect id="Rectangle-266" width="22.93" height="2.402" x="12.069" y="66.046" fill="#D8D8D8" opacity=".297"/><ellipse id="Oval-75" cx="6.034" cy="79.255" fill="#D8D8D8" opacity=".297" rx="3.621" ry="3.602"/><rect id="Rectangle-266" width="18.103" height="2.402" x="12.069" y="78.054" fill="#D8D8D8" opacity=".297"/><ellipse id="Oval-75" cx="6.034" cy="91.263" fill="#D8D8D8" opacity=".297" rx="3.621" ry="3.602"/><rect id="Rectangle-266" width="25.344" height="2.402" x="12.069" y="90.062" fill="#D8D8D8" opacity=".297"/><ellipse id="Oval-75" cx="6.034" cy="103.271" fill="#D8D8D8" opacity=".297" rx="3.621" ry="3.602"/><rect id="Rectangle-266" width="14.482" height="2.402" x="12.069" y="102.071" fill="#D8D8D8" opacity=".297"/><ellipse id="Oval-75" cx="6.034" cy="115.28" fill="#D8D8D8" opacity=".297" rx="3.621" ry="3.602"/><rect id="Rectangle-266" width="18.103" height="2.402" x="12.069" y="114.079" fill="#D8D8D8" opacity=".297"/><rect id="Rectangle-275" width="7.241" height="7.205" x="2.414" y="3.602" fill="#D2D2D2" opacity=".589" rx="2.401"/><rect id="Rectangle-276" width="25.344" height="2.402" x="13.275" y="6.004" fill="#E5E5E5"/><rect id="Rectangle-276-Copy" width="14.482" height="2.402" x="50.688" y="6.004" fill="#E5E5E5"/><rect id="Rectangle-276-Copy-2" width="25.344" height="2.402" x="68.791" y="6.004" fill="#E5E5E5"/><rect id="Rectangle-280" width="61.55" height="4.803" x="131.547" y="4.803" fill="#D8D8D8" opacity=".322"/><rect id="Rectangle-281" width="36.206" height="10.807" x="4.827" y="147.702" fill="#676767" opacity=".482"/><rect id="Rectangle-277" width="1.086" height="13.209" x="45.86" y="0" fill="#D4D4D4" opacity=".182"/></g><g id="Mobile_App" filter="url(#filter-4)" transform="translate(3.598881, 48.755202)"><rect id="Rectangle-284" width="74.377" height="13.209" x="0" y="0" fill="#2EA230"/><ellipse id="Oval-84" cx="68.379" cy="6.004" fill="#60B261" rx="2.399" ry="2.402"/><rect id="Rectangle-285" width="29.991" height="6.004" x="22.793" y="3.602" fill="#01BE4E" rx="1.201"/><rect id="Rectangle-286" width="9.993" height="6.004" x="22.793" y="3.602" fill="#005B2B"/><rect id="Rectangle-286-Copy" width="9.993" height="6.004" x="43.187" y="3.602" fill="#60B261" transform="translate(48.183015, 6.604569) scale(-1, 1) translate(-48.183015, -6.604569)"/><rect id="Rectangle-288" width="3.599" height="6.004" x="0" y="3.602" fill="#01BE4E"/><rect id="Rectangle-289" width="69.578" height="14.41" x="2.399" y="16.812" fill="#D2D2D2" rx="1.201"/><rect id="Rectangle-295" width="11.996" height="2.402" x="20.394" y="20.414" fill="#575757" opacity=".471"/><rect id="Rectangle-295" width="19.194" height="2.402" x="20.394" y="25.217" fill="#989898"/><rect id="Rectangle-289-Copy" width="69.578" height="14.41" x="2.399" y="34.824" fill="#D2D2D2" rx="1.201"/><rect id="Rectangle-289-Copy-2" width="69.578" height="14.41" x="2.399" y="52.837" fill="#D2D2D2" rx="1.201"/><rect id="Rectangle-289-Copy-3" width="69.578" height="14.41" x="2.399" y="70.849" fill="#D2D2D2" rx="1.201"/><rect id="Rectangle-289-Copy-4" width="69.578" height="14.41" x="2.399" y="88.861" fill="#D2D2D2" rx="1.201"/><rect id="Rectangle-289-Copy-5" width="69.578" height="14.41" x="2.399" y="106.874" fill="#D2D2D2" rx="1.201"/><ellipse id="Oval-85" cx="10.797" cy="24.017" fill="#049532" opacity=".361" rx="3.599" ry="3.602"/><ellipse id="Oval-85-Copy" cx="10.797" cy="42.029" fill="#049532" opacity=".361" rx="3.599" ry="3.602"/><ellipse id="Oval-85-Copy-2" cx="10.797" cy="60.042" fill="#049532" opacity=".361" rx="3.599" ry="3.602"/><ellipse id="Oval-85-Copy-3" cx="10.797" cy="78.054" fill="#049532" opacity=".361" rx="3.599" ry="3.602"/><ellipse id="Oval-85-Copy-4" cx="10.797" cy="96.066" fill="#049532" opacity=".361" rx="3.599" ry="3.602"/><ellipse id="Oval-85-Copy-5" cx="10.797" cy="114.079" fill="#049532" opacity=".361" rx="3.599" ry="3.602"/><rect id="Rectangle-295" width="11.996" height="2.402" x="20.394" y="38.427" fill="#575757" opacity=".471"/><rect id="Rectangle-295" width="7.198" height="2.402" x="20.394" y="43.23" fill="#575757" opacity=".471"/><rect id="Rectangle-295" width="15.595" height="2.402" x="20.394" y="56.439" fill="#575757" opacity=".471"/><rect id="Rectangle-295" width="15.595" height="2.402" x="20.394" y="61.242" fill="#575757" opacity=".471"/><g id="Group-13" fill="#575757" opacity=".471" transform="translate(29.990673, 78.053999) scale(1, -1) translate(-29.990673, -78.053999) translate(20.393657, 74.451507)"><rect id="Rectangle-295" width="11.996" height="2.402" x="0" y="0"/><rect id="Rectangle-295" width="19.194" height="2.402" x="0" y="4.803"/></g><rect id="Rectangle-295" width="15.595" height="2.402" x="20.394" y="92.464" fill="#575757" opacity=".471"/><rect id="Rectangle-295" width="19.194" height="2.402" x="20.394" y="97.267" fill="#575757" opacity=".471"/><rect id="Rectangle-295" width="11.996" height="2.402" x="20.394" y="110.476" fill="#575757" opacity=".471"/><rect id="Rectangle-295" width="11.996" height="2.402" x="20.394" y="115.28" fill="#575757" opacity=".471"/><rect id="Rectangle-307" width="9.597" height="7.205" x="51.584" y="20.414" fill="#B7B7B7"/><rect id="Rectangle-307-Copy" width="15.595" height="7.205" x="45.586" y="38.427" fill="#B7B7B7"/><rect id="Rectangle-307-Copy-2" width="9.597" height="7.205" x="51.584" y="56.439" fill="#B7B7B7"/><rect id="Rectangle-307-Copy-3" width="9.597" height="7.205" x="51.584" y="74.452" fill="#B7B7B7"/><rect id="Rectangle-307-Copy-4" width="11.996" height="7.205" x="49.185" y="92.464" fill="#B7B7B7"/><rect id="Rectangle-307-Copy-5" width="9.597" height="7.205" x="51.584" y="110.476" fill="#B7B7B7"/><rect id="Rectangle-313" width="2.399" height="7.205" x="65.979" y="20.414" fill="#CA1D30" opacity=".438"/><rect id="Rectangle-313" width="2.399" height="7.205" x="65.979" y="38.427" fill="#00A11A" opacity=".438"/><rect id="Rectangle-313-Copy" width="2.399" height="7.205" x="65.979" y="56.439" fill="#CA1D30" opacity=".438"/><rect id="Rectangle-313-Copy-2" width="2.399" height="7.205" x="65.979" y="74.452" fill="#00A11A" opacity=".438"/><rect id="Rectangle-313-Copy-3" width="2.399" height="7.205" x="65.979" y="92.464" fill="#00A11A" opacity=".438"/><rect id="Rectangle-313-Copy-4" width="2.399" height="7.205" x="65.979" y="110.476" fill="#CA1D30" opacity=".438"/></g></g></g></g></g></g></g></svg>