<svg xmlns="http://www.w3.org/2000/svg" xmlns:xlink="http://www.w3.org/1999/xlink" width="333" height="188" version="1.1" viewBox="0 0 333 188"><title>Group 6</title><desc>Created with Sketch.</desc><g id="Page-1" fill="none" fill-rule="evenodd" stroke="none" stroke-width="1"><g id="Artboard-7" transform="translate(-298.000000, -269.000000)"><g id="Group-6" transform="translate(299.000000, 269.000000)"><g id="Group-5" stroke="#757575" stroke-dasharray="5.4" stroke-linecap="square" stroke-opacity=".254" stroke-width="2.7" transform="translate(0.000000, 32.382775)"><path id="Line" d="M0.449864499,125.483254 L331.550136,125.483254"/><path id="Line" d="M0.449864499,84.1052632 L331.550136,84.1052632"/><path id="Line" d="M0.449864499,42.7272727 L331.550136,42.7272727"/><path id="Line" d="M0.449864499,1.3492823 L331.550136,1.3492823"/></g><g id="Group-4" transform="translate(18.894309, 0.000000)"><path id="Rectangle-263" fill="#455E71" d="M49.4850949,10.7863021 C49.4850949,9.79711218 50.2855603,8.99521531 51.2765947,8.99521531 L67.4876329,8.99521531 C68.477051,8.99521531 69.8150098,9.58454408 70.4925474,10.3296635 L77.0630082,17.5555039 C77.7331586,18.2924993 77.7405458,19.4792809 77.0630082,20.2244004 L70.4925474,27.4502408 C69.822397,28.1872362 68.4786673,28.784689 67.4876329,28.784689 L51.2765947,28.784689 C50.2871767,28.784689 49.4850949,27.9844081 49.4850949,26.9936022 L49.4850949,10.7863021 Z"/><path id="Rectangle-263-Copy" fill="#455E71" d="M135.859079,95.341326 C135.859079,94.3521361 136.659544,93.5502392 137.650578,93.5502392 L153.861617,93.5502392 C154.851035,93.5502392 156.188994,94.139568 156.866531,94.8846875 L163.436992,102.110528 C164.107142,102.847523 164.11453,104.034305 163.436992,104.779424 L156.866531,112.005265 C156.196381,112.74226 154.852651,113.339713 153.861617,113.339713 L137.650578,113.339713 C136.66116,113.339713 135.859079,112.539432 135.859079,111.548626 L135.859079,95.341326 Z"/><path id="Rectangle-263-Copy-2" fill="#455E71" d="M220.433604,136.719316 C220.433604,135.730127 221.23407,134.92823 222.225104,134.92823 L238.436142,134.92823 C239.42556,134.92823 240.763519,135.517558 241.441057,136.262678 L248.011518,143.488518 C248.681668,144.225514 248.689055,145.412295 248.011518,146.157415 L241.441057,153.383255 C240.770906,154.120251 239.427177,154.717703 238.436142,154.717703 L222.225104,154.717703 C221.235686,154.717703 220.433604,153.917422 220.433604,152.926617 L220.433604,136.719316 Z"/><rect id="Rectangle-259" width="38.688" height="186.201" x="0" y="0" fill="#1B8AF3"/><rect id="Rectangle-259-Copy" width="38.688" height="168.211" x="85.474" y="17.99" fill="#1B74C8"/><rect id="Rectangle-259-Copy-2" width="38.688" height="85.455" x="170.949" y="102.545" fill="#1A5184"/><rect id="Rectangle-259-Copy-3" width="38.688" height="43.177" x="256.423" y="143.024" fill="#1B548B"/></g></g></g></g></svg>