<svg xmlns="http://www.w3.org/2000/svg" xmlns:xlink="http://www.w3.org/1999/xlink" width="333" height="76" version="1.1" viewBox="0 0 333 76"><title>Group 5</title><desc>Created with Sketch.</desc><g id="Page-1" fill="none" fill-rule="evenodd" stroke="none" stroke-width="1"><g id="Mobile-App_1-Copy" transform="translate(-646.000000, -371.000000)"><g id="Group-5" transform="translate(646.000000, 371.000000)"><text id="Funnels" fill="#FFF" font-family="HelveticaNeue, Helvetica Neue" font-size="12" font-weight="normal" letter-spacing="-.037" line-spacing="14.96" opacity=".892"><tspan x="94.046" y="71.977">Funnels</tspan></text><g id="Group-8" transform="translate(89.824934, 0.000000)"><g id="Group-47"><ellipse id="Oval-1-Copy-22" cx="24.658" cy="24.744" fill="#6E89EC" rx="24.658" ry="24.744"/><g id="Path-7-+-Path-7-Copy-+-Path-8" stroke="#FFF" stroke-linecap="round" stroke-linejoin="round" stroke-width="1.495" transform="translate(12.328912, 16.496124)"><path id="Path-7" d="M0.067978966,0.898013853 C0.067978966,0.898013853 0.291805689,1.15382406 0.403719051,1.28172917 C3.55479606,4.88307603 9.85695007,12.0857698 9.85695007,12.0857698 L9.85695007,18.9705426 L14.3064824,18.9705426"/><path id="Path-7-Copy" d="M14.3064824,0.898013853 L24.0954535,12.0857698 L24.0954535,18.9705426" transform="translate(19.200968, 9.934278) scale(-1, 1) translate(-19.200968, -9.934278)"/><path id="Path-8" d="M0.067978966,0.875563541 L24.0954535,0.875563541"/></g></g></g><text id="More-Plugins" fill="#FFF" font-family="HelveticaNeue, Helvetica Neue" font-size="12" font-weight="normal" letter-spacing="-.037" line-spacing="14.96" opacity=".892"><tspan x="263.199" y="71.977">More Plugins</tspan></text><g id="Group-6" transform="translate(271.236074, 0.883721)"><ellipse id="Oval-216" cx="24.658" cy="24.744" stroke="#B9CCFF" stroke-width=".88" rx="24.658" ry="24.744"/><text id="10+" fill="#FFF" font-family="HelveticaNeue, Helvetica Neue" font-size="18.48" font-weight="normal" letter-spacing="-.675"><tspan x="10.292" y="31.256">10+</tspan></text></g><text id="User-Profiles" fill="#FFF" font-family="HelveticaNeue, Helvetica Neue" font-size="12" font-weight="normal" letter-spacing="-.037" line-spacing="14.96" opacity=".892"><tspan x="170.866" y="71.977">User Profiles</tspan></text><g id="Group-7" transform="translate(179.649867, 0.883721)"><g id="Group-42"><ellipse id="Oval-1-Copy-17" cx="24.658" cy="24.744" fill="#6A8DF5" rx="24.658" ry="24.744"/><rect id="Rectangle-101" width="8.219" height="1.65" x="27.124" y="18.971" fill="#FFF" rx="44.608"/><rect id="Rectangle-101-Copy" width="9.863" height="1.65" x="25.48" y="22.27" fill="#FFF" rx="44.608"/><rect id="Rectangle-101-Copy-2" width="6.575" height="1.65" x="28.767" y="25.569" fill="#FFF" rx="44.608"/><path id="Oval-22" stroke="#FFF" stroke-linecap="round" stroke-linejoin="round" stroke-width="1.397" d="M14.1799219,32.9922481 C14.0446911,32.4064159 13.9727675,31.7922459 13.9727675,31.1593454 C13.9727675,28.2477204 15.4949663,25.7325106 17.7004428,24.5491155 C16.8270119,23.708828 16.2741645,22.4655914 16.2741645,21.0783807 C16.2741645,18.5476702 18.1141118,16.496124 20.3838019,16.496124 C22.6534921,16.496124 24.4934394,18.5476702 24.4934394,21.0783807 C24.4934394,22.4056285 23.9873532,23.60108 23.1786088,24.4379122 C25.5007866,25.5693272 27.1236074,28.1530265 27.1236074,31.1593454 C27.1236074,31.7922459 27.0516838,32.4064159 26.916453,32.9922481 L14.1799219,32.9922481 Z"/></g></g><text id="Drill" fill="#FFF" font-family="HelveticaNeue, Helvetica Neue" font-size="12" font-weight="normal" letter-spacing="-.037" line-spacing="14.96" opacity=".892"><tspan x="14.092" y="71.977">Drill</tspan></text><g id="Group-4"><ellipse id="Oval-1-Copy-20" cx="24.658" cy="24.744" fill="#6C8BF0" rx="24.658" ry="24.744"/><g id="Group-Copy-3-+-Rectangle-64-+-Star-2-Copy" fill="#FFF" transform="translate(23.835897, 26.393798) scale(-1, 1) translate(-23.835897, -26.393798) translate(10.685057, 16.496124)"><g id="Group-Copy-3-+-Rectangle-64-+-Star-2"><g id="Group-Copy-3" transform="translate(8.007922, 1.466322)"><rect id="Rectangle-11" width="17.472" height="1.76" x="0" y="0" rx="49.562"/><rect id="Rectangle-11-Copy" width="14.56" height="1.76" x="0" y="4.399" rx="49.562"/><rect id="Rectangle-11-Copy-2" width="11.648" height="1.76" x="0" y="8.798" rx="49.562"/><path id="Rectangle-11-Copy-3" d="M2.86154118,14.0494808 C3.13062882,13.6429839 3.74600437,13.313453 4.22511883,13.313453 L7.13157083,13.313453 C7.61556632,13.313453 8.00792219,13.7039623 8.00792219,14.1932464 L8.00792219,14.1932464 C8.00792219,14.6791428 7.60761898,15.0730397 7.12339054,15.0730397 L3.06851043,15.0730397 C2.57999709,15.0730397 2.39761898,14.7503044 2.67120506,14.3370119 L2.86154118,14.0494808 Z"/></g><g id="Rectangle-64-+-Star-2"><rect id="Rectangle-64" width="1.747" height="16.13" x="3.203" y="0"/><path id="Star-2" d="M0.79392742,19.2433066 C0.383546494,19.2433066 0.267316536,18.9843612 0.528499274,18.6719 L3.76085529,14.8049297 C3.93532486,14.5962062 4.22004407,14.5984172 4.39266549,14.8049297 L7.6250215,18.6719 C7.88881051,18.9874791 7.77704171,19.2433066 7.35959336,19.2433066 L0.79392742,19.2433066 Z" transform="translate(4.076706, 16.964543) scale(1, -1) translate(-4.076706, -16.964543)"/></g></g></g></g></g></g></g></svg>