<svg xmlns="http://www.w3.org/2000/svg" xmlns:xlink="http://www.w3.org/1999/xlink" width="99" height="99" version="1.1" viewBox="0 0 99 99"><title>Group 4</title><desc>Created with Sketch.</desc><g id="Page-1" fill="none" fill-rule="evenodd" stroke="none" stroke-width="1"><g id="Artboard" transform="translate(-592.000000, -193.000000)"><g id="Group-4" transform="translate(592.000000, 196.000000)"><g id="Group-3"><g id="Group-2" stroke="#565656" stroke-width="5" transform="translate(22.224490, 0.000000)"><g id="Group"><path id="Path-2" d="M3.43731549,1.68136705 C-4.96279971,6.74768378 2.03324285,13.1307848 24.4254431,20.8306702 C18.8334732,2.99815139 11.8374307,-3.38494967 3.43731549,1.68136705 Z"/></g><g id="Group" transform="translate(39.903061, 10.500000) scale(-1, 1) translate(-39.903061, -10.500000) translate(27.275510, 0.000000)"><path id="Path-2" d="M3.43731549,1.68136705 C-4.96279971,6.74768378 2.03324285,13.1307848 24.4254431,20.8306702 C18.8334732,2.99815139 11.8374307,-3.38494967 3.43731549,1.68136705 Z"/></g></g><rect id="Rectangle-2" width="82.837" height="76" x="8.082" y="20" fill="#5C5C5C" rx="7"/><rect id="Rectangle-2" width="82.837" height="35" x="8.082" y="20" fill="#424242"/><rect id="Rectangle-3" width="99" height="27" x="0" y="20" fill="#5C5C5C" rx="6"/><rect id="Rectangle-4" width="24.245" height="27" x="37.378" y="20" fill="#2DB52A"/><rect id="Rectangle-4-Copy-2" width="22.224" height="41" x="38.388" y="55" fill="#2DB52A"/><rect id="Rectangle-4-Copy" width="22.224" height="8" x="38.388" y="47" fill="#259923"/></g></g></g></g></svg>