<svg xmlns="http://www.w3.org/2000/svg" xmlns:xlink="http://www.w3.org/1999/xlink" width="85" height="85" version="1.1" viewBox="0 0 85 85"><title>Group 8</title><desc>Created with Sketch.</desc><defs><circle id="path-1" cx="42.5" cy="42.5" r="42.5"/></defs><g id="Page-1" fill="none" fill-rule="evenodd" stroke="none" stroke-width="1"><g id="2yrs" transform="translate(-714.000000, -197.000000)"><g id="Group-8" transform="translate(714.000000, 197.000000)"><g id="Group-7"><g id="Group"><mask id="mask-2" fill="#fff"><use xlink:href="#path-1"/></mask><use id="Mask" fill="#D8D8D8" xlink:href="#path-1"/><g id="Group-5" mask="url(#mask-2)"><g transform="translate(-21.000000, 8.000000)"><g id="Group-10" fill="none" stroke-width="1" transform="translate(45.000000, 32.000000)"><rect id="Rectangle-4" width="8.293" height="7.657" x="0" y="5.583" fill="silver" rx="1.92"/><rect id="Rectangle-4-Copy" width="8.293" height="7.657" x="9.569" y="5.583" fill="silver" rx="1.92"/><rect id="Rectangle-4-Copy-2" width="8.293" height="7.657" x="19.138" y="5.583" fill="silver" rx="1.92"/><rect id="Rectangle-4-Copy-3" width="8.293" height="7.657" x="28.707" y="5.583" fill="silver" rx="1.92"/><rect id="Rectangle-4" width="8.293" height="7.657" x="0" y="14.517" fill="silver" rx="1.92"/><rect id="Rectangle-4-Copy" width="8.293" height="7.657" x="9.569" y="14.517" fill="silver" rx="1.92"/><rect id="Rectangle-4-Copy-2" width="8.293" height="7.657" x="19.138" y="14.517" fill="silver" rx="1.92"/><rect id="Rectangle-4-Copy-3" width="8.293" height="7.657" x="28.707" y="14.517" fill="silver" rx="1.92"/><rect id="Rectangle-4" width="8.293" height="7.657" x="0" y="23.45" fill="silver" rx="1.92"/><rect id="Rectangle-4-Copy" width="8.293" height="7.657" x="9.569" y="23.45" fill="silver" rx="1.92"/><rect id="Rectangle-4-Copy-2" width="8.293" height="7.657" x="19.138" y="23.45" fill="silver" rx="1.92"/><rect id="Rectangle-4-Copy-3" width="8.293" height="7.657" x="28.707" y="23.45" fill="silver" rx="1.92"/><rect id="Rectangle-3" width="15.283" height="3.19" x="0" y="0" fill="#B6B6B6" rx="1.595"/></g><g id="Group-10" fill="none" stroke-width="1" transform="translate(0.000000, 32.000000)"><rect id="Rectangle-4-Copy-2" width="8.293" height="7.657" x="19.138" y="5.583" fill="#DC3030" rx="1.92"/><rect id="Rectangle-4-Copy-3" width="8.293" height="7.657" x="28.707" y="5.583" fill="#DC3030" rx="1.92"/><rect id="Rectangle-4-Copy-2" width="8.293" height="7.657" x="19.138" y="14.517" fill="#DC3030" rx="1.92"/><rect id="Rectangle-4-Copy-3" width="8.293" height="7.657" x="28.707" y="14.517" fill="#DC3030" rx="1.92"/><rect id="Rectangle-4-Copy-2" width="8.293" height="7.657" x="19.138" y="23.45" fill="#DC3030" rx="1.92"/><rect id="Rectangle-4-Copy-3" width="8.293" height="7.657" x="28.707" y="23.45" fill="#DC3030" rx="1.92"/></g><g id="Group-6" fill="none" stroke-width="1" transform="translate(89.000000, 37.000000)"><rect id="Rectangle-4" width="8.293" height="7.657" x="0" y=".476" fill="silver" rx="1.92"/><rect id="Rectangle-4-Copy" width="8.293" height="7.657" x="9.569" y=".476" fill="silver" rx="1.92"/><rect id="Rectangle-4" width="8.293" height="7.657" x="0" y="9.41" fill="silver" rx="1.92"/><rect id="Rectangle-4-Copy" width="8.293" height="7.657" x="9.569" y="9.41" fill="silver" rx="1.92"/><rect id="Rectangle-4" width="8.293" height="7.657" x="0" y="18.343" fill="silver" rx="1.92"/><rect id="Rectangle-4-Copy" width="8.293" height="7.657" x="9.569" y="18.343" fill="silver" rx="1.92"/></g><rect id="Rectangle-3-Copy" width="15.283" height="3.19" x="89" y="32.69" fill="#B6B6B6" rx="1.595"/><g id="Group-4" fill="none" stroke-width="1" transform="translate(48.000000, 0.000000)"><ellipse id="Oval-2" cx="15.349" cy="15.5" fill="#FFF" rx="15.349" ry="15.5"/><rect id="Rectangle" width="16.692" height="2.385" x="7.154" y="14.308" fill="#DC3030"/></g></g></g></g></g></g></g></g></svg>