<svg xmlns="http://www.w3.org/2000/svg" xmlns:xlink="http://www.w3.org/1999/xlink" width="85" height="85" version="1.1" viewBox="0 0 85 85"><title>Group 8</title><desc>Created with Sketch.</desc><defs><circle id="path-1" cx="42.5" cy="42.5" r="42.5"/></defs><g id="Page-1" fill="none" fill-rule="evenodd" stroke="none" stroke-width="1"><g id="1year" transform="translate(-714.000000, -197.000000)"><g id="Group-8" transform="translate(714.000000, 197.000000)"><g id="Group-7"><g id="Group"><mask id="mask-2" fill="#fff"><use xlink:href="#path-1"/></mask><use id="Mask" fill="#D8D8D8" xlink:href="#path-1"/><g id="Group-5" mask="url(#mask-2)"><g transform="translate(12.000000, 0.000000)"><g id="Group-6"><rect id="Rectangle-4" width="13.448" height="12.439" x="0" y="43.537" fill="silver" rx="3.12"/><rect id="Rectangle-4-Copy" width="13.448" height="12.439" x="15.517" y="43.537" fill="silver" rx="3.12"/><rect id="Rectangle-4-Copy-2" width="13.448" height="12.439" x="31.034" y="43.537" fill="silver" rx="3.12"/><rect id="Rectangle-4-Copy-3" width="13.448" height="12.439" x="46.552" y="43.537" fill="silver" rx="3.12"/><rect id="Rectangle-4" width="13.448" height="12.439" x="0" y="58.049" fill="silver" rx="3.12"/><rect id="Rectangle-4-Copy" width="13.448" height="12.439" x="15.517" y="58.049" fill="silver" rx="3.12"/><rect id="Rectangle-4-Copy-2" width="13.448" height="12.439" x="31.034" y="58.049" fill="silver" rx="3.12"/><rect id="Rectangle-4-Copy-3" width="13.448" height="12.439" x="46.552" y="58.049" fill="silver" rx="3.12"/><rect id="Rectangle-4" width="13.448" height="12.439" x="0" y="72.561" fill="silver" rx="3.12"/><rect id="Rectangle-4-Copy" width="13.448" height="12.439" x="15.517" y="72.561" fill="silver" rx="3.12"/><rect id="Rectangle-4-Copy-2" width="13.448" height="12.439" x="31.034" y="72.561" fill="silver" rx="3.12"/><rect id="Rectangle-4-Copy-3" width="13.448" height="12.439" x="46.552" y="72.561" fill="silver" rx="3.12"/><rect id="Rectangle-4" width="13.448" height="12.439" x="0" y="0" fill="#DC3030" rx="3.12"/><rect id="Rectangle-4-Copy" width="13.448" height="12.439" x="15.517" y="0" fill="#DC3030" rx="3.12"/><rect id="Rectangle-4-Copy-2" width="13.448" height="12.439" x="31.034" y="0" fill="#DC3030" rx="3.12"/><rect id="Rectangle-4-Copy-3" width="13.448" height="12.439" x="46.552" y="0" fill="#DC3030" rx="3.12"/><rect id="Rectangle-4" width="13.448" height="12.439" x="0" y="14.512" fill="#DC3030" rx="3.12"/><rect id="Rectangle-4-Copy" width="13.448" height="12.439" x="15.517" y="14.512" fill="#DC3030" rx="3.12"/><rect id="Rectangle-4-Copy-2" width="13.448" height="12.439" x="31.034" y="14.512" fill="#DC3030" rx="3.12"/><rect id="Rectangle-4-Copy-3" width="13.448" height="12.439" x="46.552" y="14.512" fill="#DC3030" rx="3.12"/><rect id="Rectangle-4" width="13.448" height="12.439" x="0" y="29.024" fill="#DC3030" rx="3.12"/><rect id="Rectangle-4-Copy" width="13.448" height="12.439" x="15.517" y="29.024" fill="#DC3030" rx="3.12"/><rect id="Rectangle-4-Copy-2" width="13.448" height="12.439" x="31.034" y="29.024" fill="#DC3030" rx="3.12"/><rect id="Rectangle-4-Copy-3" width="13.448" height="12.439" x="46.552" y="29.024" fill="#DC3030" rx="3.12"/></g><g id="Group-4" transform="translate(15.000000, 27.000000)"><ellipse id="Oval-2" cx="15.349" cy="15.5" fill="#FFF" rx="15.349" ry="15.5"/><rect id="Rectangle" width="16.692" height="2.385" x="7.154" y="14.308" fill="#DC3030"/></g></g></g></g></g></g></g></g></svg>