<svg xmlns="http://www.w3.org/2000/svg" xmlns:xlink="http://www.w3.org/1999/xlink" width="85" height="85" version="1.1" viewBox="0 0 85 85"><title>Group 8</title><desc>Created with Sketch.</desc><defs><circle id="path-1" cx="42.5" cy="42.5" r="42.5"/></defs><g id="Page-1" fill="none" fill-rule="evenodd" stroke="none" stroke-width="1"><g id="3months" transform="translate(-684.000000, -197.000000)"><g id="Group-8" transform="translate(684.000000, 197.000000)"><g id="Group-7"><g id="Group"><mask id="mask-2" fill="#fff"><use xlink:href="#path-1"/></mask><use id="Mask" fill="#D8D8D8" xlink:href="#path-1"/></g></g><g id="Group-6" transform="translate(13.000000, 23.000000)"><rect id="Rectangle-4" width="13" height="12" x="0" y="0" fill="#DC3030" rx="3"/><rect id="Rectangle-4-Copy" width="13" height="12" x="15" y="0" fill="#DC3030" rx="3"/><rect id="Rectangle-4-Copy-2" width="13" height="12" x="30" y="0" fill="#DC3030" rx="3"/><rect id="Rectangle-4-Copy-3" width="13" height="12" x="45" y="0" fill="#DC3030" rx="3"/><rect id="Rectangle-4" width="13" height="12" x="0" y="14" fill="#DC3030" rx="3"/><rect id="Rectangle-4-Copy" width="13" height="12" x="15" y="14" fill="silver" rx="3"/><rect id="Rectangle-4-Copy-2" width="13" height="12" x="30" y="14" fill="silver" rx="3"/><rect id="Rectangle-4-Copy-3" width="13" height="12" x="45" y="14" fill="#DC3030" rx="3"/><rect id="Rectangle-4" width="13" height="12" x="0" y="28" fill="#DC3030" rx="3"/><rect id="Rectangle-4-Copy" width="13" height="12" x="15" y="28" fill="silver" rx="3"/><rect id="Rectangle-4-Copy-2" width="13" height="12" x="30" y="28" fill="silver" rx="3"/><rect id="Rectangle-4-Copy-3" width="13" height="12" x="45" y="28" fill="silver" rx="3"/></g><g id="Group-4" transform="translate(27.000000, 27.000000)"><ellipse id="Oval-2" cx="15.349" cy="15.5" fill="#FFF" rx="15.349" ry="15.5"/><rect id="Rectangle" width="16.692" height="2.385" x="7.154" y="14.308" fill="#DC3030"/></g></g></g></g></svg>