<svg xmlns="http://www.w3.org/2000/svg" xmlns:xlink="http://www.w3.org/1999/xlink" width="85" height="85" version="1.1" viewBox="0 0 85 85"><title>Group 11</title><desc>Created with Sketch.</desc><defs><circle id="path-1" cx="42.5" cy="42.5" r="42.5"/></defs><g id="Page-1" fill="none" fill-rule="evenodd" stroke="none" stroke-width="1"><g id="delete-bookmark-copy" transform="translate(-714.000000, -197.000000)"><g id="Group-11" transform="translate(714.000000, 197.000000)"><g id="Group-8"><g id="Group-7"><g id="Group"><mask id="mask-2" fill="#fff"><use xlink:href="#path-1"/></mask><use id="Mask" fill="#D8D8D8" xlink:href="#path-1"/><g id="Group-10" mask="url(#mask-2)"><g transform="translate(31.000000, 27.000000)"><rect id="Rectangle-15" width="21" height="21" x="0" y="0" fill="#5EA8EC" rx="4"/><rect id="Rectangle-15-Copy" width="21" height="21" x="0" y="26" fill="#5EA8EC" opacity=".47" rx="4"/><rect id="Rectangle-15-Copy-2" width="21" height="21" x="0" y="52" fill="#5EA8EC" opacity=".47" rx="4"/><rect id="Rectangle-3" width="36" height="5" x="29" y="4" fill="#ABABAB" rx="2.5"/><rect id="Rectangle-3-Copy" width="36" height="5" x="29" y="29" fill="#ABABAB" rx="2.5"/><rect id="Rectangle-3" width="20.5" height="5" x="29" y="13" fill="#ABABAB" rx="2.5"/><rect id="Rectangle-3-Copy" width="20.5" height="5" x="29" y="38" fill="#ABABAB" rx="2.5"/></g></g></g></g></g><g id="Group-6" transform="translate(23.000000, 5.000000)"><g id="Group-5"><circle id="Oval-2" cx="18.5" cy="18.5" r="18.5" fill="#FFF"/><g id="Group-4" fill="#DC3030" transform="translate(19.000000, 20.000000) rotate(45.000000) translate(-19.000000, -20.000000) translate(11.000000, 12.000000)"><rect id="Rectangle" width="3.105" height="19.114" x="6.493" y="-1.687" transform="translate(8.045267, 7.870370) rotate(45.000000) translate(-8.045267, -7.870370)"/></g></g></g></g></g></g></svg>