<svg xmlns="http://www.w3.org/2000/svg" xmlns:xlink="http://www.w3.org/1999/xlink" width="85" height="85" version="1.1" viewBox="0 0 85 85"><title>Group 6</title><desc>Created with Sketch.</desc><defs><circle id="path-1" cx="42.5" cy="42.5" r="42.5"/></defs><g id="Page-1" fill="none" fill-rule="evenodd" stroke="none" stroke-width="1"><g id="delete-dashboard" transform="translate(-704.000000, -197.000000)"><g id="Group-6" transform="translate(704.000000, 197.000000)"><g id="Group-8"><g id="Group-7"><g id="Group"><mask id="mask-2" fill="#fff"><use xlink:href="#path-1"/></mask><use id="Mask" fill="#D8D8D8" xlink:href="#path-1"/><g id="Group-5" fill="#AFAFAF" mask="url(#mask-2)"><g transform="translate(8.000000, 31.000000)"><rect id="Rectangle-13" width="44" height="18" x="0" y="0" rx="2"/><rect id="Rectangle-13-Copy" width="20" height="18" x="0" y="23" rx="2"/><rect id="Rectangle-13-Copy-3" width="20" height="18" x="24" y="23" rx="2"/><rect id="Rectangle-13-Copy-4" width="20" height="18" x="48" y="23" rx="2"/><rect id="Rectangle-13-Copy-5" width="20" height="18" x="48" y="0" rx="2"/><rect id="Rectangle-13-Copy-2" width="68" height="18" x="0" y="46" rx="2"/></g></g></g></g></g><g id="Group-5" transform="translate(23.000000, 7.000000)"><circle id="Oval-2" cx="18.971" cy="18.539" r="18.539" fill="#FFF"/><g id="Group-4" fill="#DC3030" transform="translate(18.847522, 19.773645) rotate(45.000000) translate(-18.847522, -19.773645) translate(10.847522, 11.773645)"><rect id="Rectangle" width="3.105" height="19.114" x="6.493" y="-1.687" transform="translate(8.045267, 7.870370) rotate(45.000000) translate(-8.045267, -7.870370)"/></g></g></g></g></g></svg>