<svg xmlns="http://www.w3.org/2000/svg" xmlns:xlink="http://www.w3.org/1999/xlink" width="85" height="85" version="1.1" viewBox="0 0 85 85"><title>Group</title><desc>Created with Sketch.</desc><defs><circle id="path-1" cx="42.5" cy="42.5" r="42.5"/><rect id="path-3" width="31.966" height="32.281" x="4" y="4" rx="7.7"/><filter id="filter-4" width="131.3%" height="131%" x="-15.6%" y="-12.4%" filterUnits="objectBoundingBox"><feOffset dx="0" dy="1" in="SourceAlpha" result="shadowOffsetOuter1"/><feGaussianBlur in="shadowOffsetOuter1" result="shadowBlurOuter1" stdDeviation="1.5"/><feColorMatrix in="shadowBlurOuter1" type="matrix" values="0 0 0 0 0 0 0 0 0 0 0 0 0 0 0 0 0 0 0.0801064312 0"/></filter><rect id="path-5" width="31.966" height="32.281" x="41" y="4" rx="7.7"/><filter id="filter-6" width="131.3%" height="131%" x="-15.6%" y="-12.4%" filterUnits="objectBoundingBox"><feOffset dx="0" dy="1" in="SourceAlpha" result="shadowOffsetOuter1"/><feGaussianBlur in="shadowOffsetOuter1" result="shadowBlurOuter1" stdDeviation="1.5"/><feColorMatrix in="shadowBlurOuter1" type="matrix" values="0 0 0 0 0 0 0 0 0 0 0 0 0 0 0 0 0 0 0.0801064312 0"/></filter></defs><g id="Page-1" fill="none" fill-rule="evenodd" stroke="none" stroke-width="1"><g id="delete-an-app" transform="translate(-704.000000, -197.000000)"><g id="Group-7" transform="translate(644.000000, 197.000000)"><g id="Group" transform="translate(60.000000, 0.000000)"><g id="Group-2"><g id="Group-3"><mask id="mask-2" fill="#fff"><use xlink:href="#path-1"/></mask><use id="Mask" fill="#D8D8D8" xlink:href="#path-1"/><g id="Group-6" mask="url(#mask-2)"><g transform="translate(21.000000, 22.000000)"><path id="Rectangle-11" fill="#CCC" fill-rule="evenodd" d="M13.7338982,7.71929825 L30.3000001,7.71929825 C34.5525926,7.71929825 38,11.1667056 38,15.4192981 L38,32.3000001 C38,36.5525926 34.5525926,40 30.3000001,40 L13.7338982,40 C9.48130567,40 6.03389831,36.5525926 6.03389831,32.3000001 L6.03389831,15.4192981 C6.03389831,11.1667056 9.48130567,7.71929825 13.7338982,7.71929825 Z"/><g id="Rectangle-11" fill="none"><use fill="#000" fill-opacity="1" filter="url(#filter-4)" xlink:href="#path-3"/><use fill="#0DC1B9" fill-rule="evenodd" xlink:href="#path-3"/></g><g id="Rectangle-11-Copy" fill="none" opacity=".299"><use fill="#000" fill-opacity="1" filter="url(#filter-6)" xlink:href="#path-5"/><use fill="#0DC1B9" fill-rule="evenodd" xlink:href="#path-5"/></g><ellipse id="Oval-2" cx="12.883" cy="13.01" fill="#FFF" fill-rule="evenodd" rx="12.883" ry="13.01"/><g id="Group-4" fill="none" fill-rule="evenodd" stroke-width="1" transform="translate(12.797159, 13.876242) rotate(45.000000) translate(-12.797159, -13.876242) translate(7.237837, 8.262207)"><rect id="Rectangle" width="2.158" height="13.413" x="4.512" y="-1.184" fill="#DC3030" transform="translate(5.590779, 5.523067) rotate(45.000000) translate(-5.590779, -5.523067)"/></g></g></g></g></g></g></g></g></g></svg>