<svg xmlns="http://www.w3.org/2000/svg" xmlns:xlink="http://www.w3.org/1999/xlink" width="85" height="85" version="1.1" viewBox="0 0 85 85"><title>Group 15</title><desc>Created with Sketch.</desc><defs><circle id="path-1" cx="42.5" cy="42.5" r="42.5"/></defs><g id="Page-1" fill="none" fill-rule="evenodd" stroke="none" stroke-width="1"><g id="help-mode-copy-3" transform="translate(-724.000000, -197.000000)"><g id="Group-15" transform="translate(724.000000, 197.000000)"><g id="Group-14"><g id="Group-11"><g id="Group-10"><g id="Group-3"><mask id="mask-2" fill="#fff"><use xlink:href="#path-1"/></mask><use id="Mask" fill="#D8D8D8" xlink:href="#path-1"/><g id="Group-12" mask="url(#mask-2)"><g transform="translate(18.000000, 31.000000)"><rect id="Rectangle-9" width="49" height="65" x="0" y="0" fill="#F3F3F3" rx="5"/><rect id="Rectangle-3" width="38" height="4" x="6" y="24" fill="#D8D8D8" opacity=".532" rx="2"/><rect id="Rectangle-4" width="4" height="9" x="9" y="5" fill="#D8D8D8" rx="2"/><circle id="Oval" cx="11" cy="17" r="2" fill="#D8D8D8"/><rect id="Rectangle-3-Copy" width="31" height="4" x="6" y="33" fill="#D8D8D8" opacity=".532" rx="2"/><rect id="Rectangle-3-Copy-2" width="38" height="4" x="6" y="42" fill="#D8D8D8" opacity=".532" rx="2"/><rect id="Rectangle-3-Copy-3" width="38" height="4" x="6" y="51" fill="#D8D8D8" opacity=".532" rx="2"/></g></g></g></g></g><g id="Group-13" transform="translate(36.000000, 14.000000)"><circle id="Oval-2" cx="18.5" cy="18.5" r="18.5" fill="#FFF"/><g id="Group-4" fill="#DC3030" transform="translate(18.000000, 19.000000) rotate(45.000000) translate(-18.000000, -19.000000) translate(10.000000, 11.000000)"><rect id="Rectangle" width="3.105" height="19.114" x="6.493" y="-1.687" transform="translate(8.045267, 7.870370) rotate(45.000000) translate(-8.045267, -7.870370)"/></g></g></g></g></g></g></svg>