<svg xmlns="http://www.w3.org/2000/svg" xmlns:xlink="http://www.w3.org/1999/xlink" width="85" height="85" version="1.1" viewBox="0 0 85 85"><title>Group 11</title><desc>Created with Sketch.</desc><defs><circle id="path-1" cx="42.5" cy="42.5" r="42.5"/></defs><g id="Page-1" fill="none" fill-rule="evenodd" stroke="none" stroke-width="1"><g id="help-mode-copy" transform="translate(-734.000000, -197.000000)"><g id="Group-11" transform="translate(734.000000, 197.000000)"><g id="Group-10"><g id="Group-3"><mask id="mask-2" fill="#fff"><use xlink:href="#path-1"/></mask><use id="Mask" fill="#D8D8D8" xlink:href="#path-1"/><rect id="Rectangle-9" width="49" height="33" x="10" y="24" fill="#F3F3F3" mask="url(#mask-2)" rx="5"/><rect id="Rectangle-3" width="39" height="4" x="15" y="31" fill="#CECECE" mask="url(#mask-2)" rx="2"/><rect id="Rectangle-3" width="39" height="4" x="15" y="38" fill="#CECECE" mask="url(#mask-2)" rx="2"/><rect id="Rectangle-3" width="19" height="4" x="15" y="45" fill="#CECECE" mask="url(#mask-2)" rx="2"/><rect id="Rectangle-9-Copy" width="49" height="33" x="10" y="60" fill="#F3F3F3" mask="url(#mask-2)" rx="5"/><g id="Group-8" fill="#CECECE" mask="url(#mask-2)"><g id="Rectangle-3" transform="translate(15.000000, 66.000000)"><rect width="29" height="4" x="0" y="0" rx="2"/><rect width="39" height="4" x="0" y="7" rx="2"/><rect width="19" height="4" x="0" y="14" rx="2"/></g></g></g><circle id="Oval-2" cx="54.568" cy="32.181" r="18.539" fill="#FFF"/></g><g id="Group-4" fill="#DC3030" transform="translate(54.444230, 33.415620) rotate(45.000000) translate(-54.444230, -33.415620) translate(46.444230, 25.415620)"><rect id="Rectangle" width="3.105" height="19.114" x="6.493" y="-1.687" transform="translate(8.045267, 7.870370) rotate(45.000000) translate(-8.045267, -7.870370)"/></g></g></g></g></svg>