<svg xmlns="http://www.w3.org/2000/svg" xmlns:xlink="http://www.w3.org/1999/xlink" width="85" height="85" version="1.1" viewBox="0 0 85 85"><title>Group 16</title><desc>Created with Sketch.</desc><defs><circle id="path-1" cx="42.5" cy="42.5" r="42.5"/></defs><g id="Page-1" fill="none" fill-rule="evenodd" stroke="none" stroke-width="1"><g id="help-mode-copy-4" transform="translate(-724.000000, -197.000000)"><g id="Group-16" transform="translate(724.000000, 197.000000)"><g id="Group-11"><g id="Group-10"><g id="Group-3"><mask id="mask-2" fill="#fff"><use xlink:href="#path-1"/></mask><use id="Mask" fill="#D8D8D8" xlink:href="#path-1"/><g id="Group-12" mask="url(#mask-2)"><g transform="translate(12.000000, 38.000000)"><rect id="Rectangle-3" width="61" height="14" x="0" y="0" fill="#F3F3F3" rx="5"/><rect id="Rectangle-19" width="11" height="4" x="5" y="5" fill="#D8D8D8" rx="2"/><rect id="Rectangle-19-Copy" width="20" height="4" x="20" y="5" fill="#D8D8D8" rx="2"/><rect id="Rectangle-19-Copy-2" width="20" height="4" x="18" y="5" fill="#D8D8D8" rx="2"/><rect id="Rectangle-19-Copy-3" width="7" height="4" x="42" y="5" fill="#D8D8D8" rx="2"/><rect id="Rectangle-3" width="61" height="14" x="0" y="17" fill="#F3F3F3" rx="5"/><rect id="Rectangle-19" width="11" height="4" x="5" y="22" fill="#D8D8D8" rx="2"/><rect id="Rectangle-19-Copy-2" width="9" height="4" x="18" y="22" fill="#D8D8D8" rx="2"/><rect id="Rectangle-19-Copy-3" width="11" height="4" x="29" y="22" fill="#D8D8D8" rx="2"/><rect id="Rectangle-3" width="61" height="14" x="0" y="34" fill="#F3F3F3" rx="5"/><rect id="Rectangle-19" width="30" height="4" x="5" y="39" fill="#D8D8D8" rx="2"/><rect id="Rectangle-19-Copy-3" width="7" height="4" x="18" y="39" fill="#D8D8D8" rx="2"/></g></g></g></g></g><g id="Group-13" transform="translate(24.000000, 14.000000)"><circle id="Oval-2" cx="18.5" cy="18.5" r="18.5" fill="#FFF"/><g id="Group-4" fill="#DC3030" transform="translate(18.000000, 19.000000) rotate(45.000000) translate(-18.000000, -19.000000) translate(10.000000, 11.000000)"><rect id="Rectangle" width="3.105" height="19.114" x="6.493" y="-1.687" transform="translate(8.045267, 7.870370) rotate(45.000000) translate(-8.045267, -7.870370)"/></g></g></g></g></g></svg>