<svg xmlns="http://www.w3.org/2000/svg" xmlns:xlink="http://www.w3.org/1999/xlink" width="85" height="85" version="1.1" viewBox="0 0 85 85"><title>Group 9</title><desc>Created with Sketch.</desc><defs><circle id="path-1" cx="42.5" cy="42.5" r="42.5"/></defs><g id="Page-1" fill="none" fill-rule="evenodd" stroke="none" stroke-width="1"><g id="Artboard-5" transform="translate(-153.000000, -268.000000)"><g id="Group-9" transform="translate(153.000000, 268.000000)"><g id="Group-2-Copy"><g id="Group-11"><g id="Group-8"><g id="Group-7"><g id="Group"><mask id="mask-2" fill="#fff"><use xlink:href="#path-1"/></mask><use id="Mask" fill="#D8D8D8" xlink:href="#path-1"/><g id="Group-3" fill="#ABABAB" mask="url(#mask-2)"><g transform="translate(17.000000, 39.000000)"><rect id="Rectangle-18" width="50" height="15" x="0" y="0" rx="7.5"/><rect id="Rectangle-18-Copy" width="50" height="15" x="0" y="16" rx="7.5"/><rect id="Rectangle-18-Copy-2" width="50" height="15" x="0" y="32" rx="7.5"/></g></g><polyline id="Path-5" stroke="#D8D8D8" points="26.028 47.325 36.374 47.325 36.374 92.087" mask="url(#mask-2)"/><polyline id="Path-5" stroke="#D8D8D8" points="26.028 63.03 36.374 63.03 36.374 107.792" mask="url(#mask-2)"/><polyline id="Path-5" stroke="#D8D8D8" points="26.028 79.03 36.374 79.03 36.374 123.792" mask="url(#mask-2)"/></g></g></g><g id="Group-6" transform="translate(23.000000, 5.000000)"><g id="Group-5"><circle id="Oval-2" cx="18.5" cy="18.5" r="18.5" fill="#FFF"/><g id="Group-4" fill="#DC3030" transform="translate(19.000000, 19.000000) rotate(45.000000) translate(-19.000000, -19.000000) translate(11.000000, 11.000000)"><rect id="Rectangle" width="3.105" height="19.114" x="6.493" y="-1.687" transform="translate(8.045267, 7.870370) rotate(45.000000) translate(-8.045267, -7.870370)"/></g></g></g></g></g><circle id="Oval-6" cx="26" cy="47" r="2" fill="#D8D8D8"/><circle id="Oval-6-Copy" cx="26" cy="63" r="2" fill="#D8D8D8"/><circle id="Oval-6-Copy-2" cx="26" cy="79" r="2" fill="#D8D8D8"/></g></g></g></svg>