<svg xmlns="http://www.w3.org/2000/svg" xmlns:xlink="http://www.w3.org/1999/xlink" width="25" height="32" version="1.1" viewBox="0 0 25 32"><title>Group 25</title><desc>Created with Sketch.</desc><defs><rect id="path-1" width="25" height="32" x="0" y="0" rx="3"/><path id="path-2" d="M3,0 L22,0 C23.6568542,-3.04359188e-16 25,1.34314575 25,3 L0,3 L0,3 C-2.02906125e-16,1.34314575 1.34314575,3.04359188e-16 3,0 Z"/><path id="path-3" d="M3,27 L22,27 C23.6568542,27 25,28.3431458 25,30 L25,32 L0,32 L0,30 C-2.02906125e-16,28.3431458 1.34314575,27 3,27 Z"/></defs><g id="Page-1" fill="none" fill-rule="evenodd" stroke="none" stroke-width="1"><g id="Artboard-Copy-9" transform="translate(-916.000000, -243.000000)"><g id="Group-25" transform="translate(916.000000, 243.000000)"><g id="Rectangle-20"><use fill="#FFF" fill-rule="evenodd" xlink:href="#path-1"/><rect width="24" height="31" x=".5" y=".5" stroke="#636363" stroke-width="1" rx="3"/></g><g id="Rectangle-20"><use fill="#636363" fill-rule="evenodd" xlink:href="#path-2"/><path stroke="#636363" stroke-width="1" d="M0.550009058,2.5 L24.4499909,2.5 C24.2183558,1.35887984 23.209479,0.5 22,0.5 L3,0.5 C1.79052104,0.5 0.781644225,1.35887984 0.550009058,2.5 Z"/></g><g id="Rectangle-20-Copy" transform="translate(12.500000, 29.500000) scale(1, -1) translate(-12.500000, -29.500000)"><use fill="#636363" fill-rule="evenodd" xlink:href="#path-3"/><path stroke="#636363" stroke-width="1" d="M0.5,31.5 L24.5,31.5 L24.5,30 C24.5,28.6192881 23.3807119,27.5 22,27.5 L3,27.5 C1.61928813,27.5 0.5,28.6192881 0.5,30 L0.5,31.5 Z"/></g><circle id="Oval-7" cx="12.5" cy="29.5" r="1.5" fill="#FFF"/></g></g></g></svg>