<svg xmlns="http://www.w3.org/2000/svg" xmlns:xlink="http://www.w3.org/1999/xlink" width="243" height="243" version="1.1" viewBox="0 0 243 243"><title>Group 10</title><desc>Created with Sketch.</desc><defs><circle id="path-1" cx="121.5" cy="121.5" r="121.5"/><rect id="path-3" width="41.04" height="53.901" x="0" y="0" rx="2.4"/><rect id="path-4" width="129.6" height="98.332" x="45.6" y="0" rx="2.4"/><rect id="path-5" width="129.6" height="98.332" x="45.6" y="101.929" rx="2.4"/></defs><g id="event-dropdown-copy-8" fill="none" fill-rule="evenodd" stroke="none" stroke-width="1" transform="translate(-753.000000, -214.000000)"><g id="Group-9" transform="translate(492.000000, 214.000000)"><g id="Group-11"><g id="Group-12"><g id="Group-13"><g id="Group-10" transform="translate(261.000000, 0.000000)"><g id="Group-3"><mask id="mask-2" fill="#fff"><use xlink:href="#path-1"/></mask><use id="Mask" fill="#D8D8D8" xlink:href="#path-1"/><g id="Group-5" mask="url(#mask-2)"><g id="Group-4"><g transform="translate(33.000000, 45.000000)"><g id="Group-2"><rect id="Rectangle" width="251.94" height="18.227" x="0" y="0" fill="#FFF"/><g id="Group" transform="translate(0.000000, 18.227386)"><rect id="Rectangle-2" width="60.637" height="182.013" x="0" y="0" fill="#2E2E2E"/><rect id="Rectangle-2" width="60.637" height="80.49" x="0" y="142.555" fill="#383838"/><ellipse id="Oval" cx="7.58" cy="7.637" fill="#575757" rx="3.79" ry="3.818"/><rect id="Rectangle-3" width="24.002" height="2.546" x="16.423" y="6.364" fill="#575757"/><ellipse id="Oval" cx="7.58" cy="20.365" fill="#575757" rx="3.79" ry="3.818"/><rect id="Rectangle-3" width="24.002" height="2.546" x="16.423" y="19.092" fill="#575757"/><ellipse id="Oval" cx="7.58" cy="33.093" fill="#575757" rx="3.79" ry="3.818"/><rect id="Rectangle-3" width="24.002" height="2.546" x="16.423" y="31.82" fill="#575757"/><ellipse id="Oval" cx="7.58" cy="45.821" fill="#575757" rx="3.79" ry="3.818"/><rect id="Rectangle-3" width="24.002" height="2.546" x="16.423" y="44.549" fill="#575757"/><polygon id="Rectangle-4" fill="#2EA030" points="0 52.185 60.637 52.185 60.637 64.914 0 64.914"/><rect id="Rectangle-3-Copy" width="24.002" height="2.546" x="16.423" y="57.277" fill="#61B063"/><ellipse id="Oval-Copy" cx="7.58" cy="58.549" fill="#61B063" rx="3.79" ry="3.818"/><ellipse id="Oval-Copy-2" cx="7.58" cy="71.278" fill="#575757" rx="3.79" ry="3.818"/><rect id="Rectangle-3-Copy-2" width="24.002" height="2.546" x="16.423" y="70.005" fill="#575757"/><ellipse id="Oval-Copy-3" cx="7.58" cy="84.006" fill="#575757" rx="3.79" ry="3.818"/><rect id="Rectangle-3-Copy-3" width="24.002" height="2.546" x="16.423" y="82.733" fill="#575757"/><ellipse id="Oval-Copy-4" cx="7.58" cy="96.734" fill="#575757" rx="3.79" ry="3.818"/><rect id="Rectangle-3-Copy-4" width="24.002" height="2.546" x="16.423" y="95.461" fill="#575757"/><ellipse id="Oval-Copy-5" cx="7.58" cy="109.462" fill="#575757" rx="3.79" ry="3.818"/><rect id="Rectangle-3-Copy-5" width="24.002" height="2.546" x="16.423" y="108.189" fill="#575757"/></g><rect id="Rectangle-6" width="184.68" height="18.227" x="63.84" y="21.645" fill="#C6C6C6"/><rect id="Rectangle-6" width="184.68" height="249.367" x="63.84" y="21.645" fill="#FFF"/><rect id="Rectangle-6" width="184.68" height="249.367" x="63.84" y="39.633" fill="#F9F9F9"/><rect id="Rectangle-7" width="22.8" height="3.418" x="69.54" y="29.62" fill="#2E2E2E" opacity=".306"/><rect id="Rectangle-15" width="9.12" height="7.974" x="9.12" y="4.557" fill="#D8D8D8" opacity=".41" rx="3.987"/><rect id="Rectangle-16" width="23.94" height="2.278" x="23.94" y="7.974" fill="#EFEFEF"/><rect id="Rectangle-17" width="42.18" height="18.227" x="60.42" y="0" fill="#D8D8D8" opacity=".396"/><rect id="Rectangle-17-Copy" width="42.18" height="18.227" x="101.46" y="0" fill="#D8D8D8" opacity=".21"/><rect id="Rectangle-18" width="20.52" height="2.278" x="75.24" y="7.974" fill="#D8D8D8" opacity=".452"/><rect id="Rectangle-18-Copy" width="20.52" height="2.278" x="117.42" y="7.974" fill="#D8D8D8" opacity=".452"/><rect id="Rectangle-19-Copy" width="10.26" height="1.139" x="209.76" y="9.114" fill="#D8D8D8" opacity=".588"/><g id="Group-14" transform="translate(68.400000, 43.170124)"><g id="Rectangle-21"><use fill="#FFF" fill-rule="evenodd" xlink:href="#path-3"/><rect width="39.84" height="52.701" x=".6" y=".6" stroke="#E8E8E8" stroke-width="1.2" rx="2.4"/></g><g id="Rectangle-21-Copy"><use fill="#FFF" fill-rule="evenodd" xlink:href="#path-4"/><rect width="128.4" height="97.132" x="46.2" y=".6" stroke="#E8E8E8" stroke-width="1.2" rx="2.4"/></g><g id="Rectangle-21-Copy-2"><use fill="#FFF" fill-rule="evenodd" xlink:href="#path-5"/><rect width="128.4" height="97.132" x="46.2" y="102.529" stroke="#E8E8E8" stroke-width="1.2" rx="2.4"/></g></g></g><g id="Group-3" transform="translate(140.400000, 113.921162)"><rect id="Rectangle-12" width="2.763" height="9.906" x="0" y="0" fill="#C6C6C6"/><rect id="Rectangle-14" width="11.051" height="1.415" x="0" y="14.152" fill="#D8D8D8"/><rect id="Rectangle-12" width="2.763" height="9.906" x="8.288" y="0" fill="#C6C6C6"/><rect id="Rectangle-13" width="1.381" height="2.83" x="5.525" y="8.491" fill="#C6C6C6"/><rect id="Rectangle-12" width="2.763" height="9.906" x="13.814" y="0" fill="#C6C6C6"/><rect id="Rectangle-12" width="2.763" height="9.906" x="19.339" y="0" fill="#C6C6C6"/></g><g id="Group-3" transform="translate(193.200000, 113.921162)"><rect id="Rectangle-12" width="2.763" height="9.906" x="0" y="0" fill="#C6C6C6"/><rect id="Rectangle-14" width="11.051" height="1.415" x="0" y="14.152" fill="#D8D8D8"/><rect id="Rectangle-12" width="2.763" height="9.906" x="8.288" y="0" fill="#C6C6C6"/><rect id="Rectangle-13" width="1.381" height="2.83" x="5.525" y="8.491" fill="#C6C6C6"/><rect id="Rectangle-12" width="2.763" height="9.906" x="13.814" y="0" fill="#C6C6C6"/></g><polyline id="Path-2-Copy" stroke="#42A3FF" stroke-width="1.2" points="128.4 86.952 143.132 71.929 150.96 79.44 169.29 86.952 189.934 65.776 200.442 86.952 215.499 71.929 232.8 71.929"/><polyline id="Path-2-Copy" stroke="#03C0B8" stroke-width="1.2" points="128.4 98.943 142.585 97.319 150.96 91.432 168.96 93.538 188.946 91.432 200.909 93.538 215.499 83.92 231.211 91.432"/><rect id="Rectangle-23" width="28.8" height="2.398" x="73.2" y="49.166" fill="#D7D7D7"/><rect id="Rectangle-23" width="12.6" height="2.398" x="121.2" y="49.166" fill="#D7D7D7"/><rect id="Rectangle-23" width="24" height="2.398" x="207.6" y="49.166" fill="#D7D7D7"/><rect id="Rectangle-23" width="12.6" height="2.398" x="121.2" y="152.295" fill="#D7D7D7"/><rect id="Rectangle-23" width="19.8" height="2.398" x="145.2" y="152.295" fill="#D7D7D7"/><rect id="Rectangle-23" width="12.6" height="2.398" x="169.2" y="152.295" fill="#D7D7D7"/><rect id="Rectangle-23" width="12.6" height="2.398" x="193.2" y="152.295" fill="#D7D7D7"/><rect id="Rectangle-23" width="12.6" height="2.398" x="121.2" y="164.286" fill="#D7D7D7"/><rect id="Rectangle-23" width="19.8" height="2.398" x="145.2" y="164.286" fill="#D7D7D7"/><rect id="Rectangle-23" width="7.2" height="2.398" x="169.2" y="164.286" fill="#D7D7D7"/><rect id="Rectangle-23" width="12.6" height="2.398" x="193.2" y="164.286" fill="#D7D7D7"/><rect id="Rectangle-23" width="8.4" height="2.398" x="121.2" y="170.282" fill="#D7D7D7"/><rect id="Rectangle-23" width="7.8" height="2.398" x="145.2" y="170.282" fill="#D7D7D7"/><rect id="Rectangle-23" width="10.2" height="2.398" x="169.2" y="170.282" fill="#D7D7D7"/><rect id="Rectangle-23" width="12.6" height="2.398" x="193.2" y="170.282" fill="#D7D7D7"/><rect id="Rectangle-23" width="12.6" height="2.398" x="121.2" y="176.278" fill="#D7D7D7"/><rect id="Rectangle-23" width="19.8" height="2.398" x="145.2" y="176.278" fill="#D7D7D7"/><rect id="Rectangle-23" width="12.6" height="2.398" x="169.2" y="176.278" fill="#D7D7D7"/><rect id="Rectangle-23" width="12.6" height="2.398" x="193.2" y="176.278" fill="#D7D7D7"/><rect id="Rectangle-23" width="8.4" height="2.398" x="121.2" y="182.274" fill="#D7D7D7"/><rect id="Rectangle-23" width="15" height="2.398" x="145.2" y="182.274" fill="#D7D7D7"/><rect id="Rectangle-23" width="12.6" height="2.398" x="169.2" y="182.274" fill="#D7D7D7"/><rect id="Rectangle-23" width="12.6" height="2.398" x="193.2" y="182.274" fill="#D7D7D7"/><rect id="Rectangle-23" width="12.6" height="2.398" x="121.2" y="188.27" fill="#D7D7D7"/><rect id="Rectangle-23" width="19.8" height="2.398" x="145.2" y="188.27" fill="#D7D7D7"/><rect id="Rectangle-23" width="12.6" height="2.398" x="169.2" y="188.27" fill="#D7D7D7"/><rect id="Rectangle-23" width="12.6" height="2.398" x="193.2" y="188.27" fill="#D7D7D7"/><rect id="Rectangle-23" width="12.6" height="2.398" x="121.2" y="194.266" fill="#D7D7D7"/><rect id="Rectangle-23" width="6" height="2.398" x="145.2" y="194.266" fill="#D7D7D7"/><rect id="Rectangle-23" width="12.6" height="2.398" x="169.2" y="194.266" fill="#D7D7D7"/><rect id="Rectangle-23" width="12.6" height="2.398" x="193.2" y="194.266" fill="#D7D7D7"/><rect id="Rectangle-23" width="26.4" height="2.398" x="73.2" y="61.158" fill="#A6A6A6"/><rect id="Rectangle-23" width="28.8" height="2.398" x="73.2" y="67.154" fill="#D7D7D7"/><rect id="Rectangle-23" width="24" height="2.398" x="73.2" y="73.149" fill="#D7D7D7"/><rect id="Rectangle-23" width="28.8" height="2.398" x="73.2" y="79.145" fill="#D7D7D7"/><rect id="Rectangle-23" width="16.8" height="2.398" x="73.2" y="85.141" fill="#D7D7D7"/></g></g></g></g></g></g></g></g></g></g></svg>