<svg xmlns="http://www.w3.org/2000/svg" xmlns:xlink="http://www.w3.org/1999/xlink" width="243" height="243" version="1.1" viewBox="0 0 243 243"><title>Group 10</title><desc>Created with Sketch.</desc><defs><circle id="path-1" cx="121.5" cy="121.5" r="121.5"/><rect id="path-3" width="35.977" height="47.284" x=".105" y=".207" rx="1.899"/><mask id="mask-4" width="35.977" height="47.284" x="0" y="0" fill="#fff" maskContentUnits="userSpaceOnUse" maskUnits="objectBoundingBox"><use xlink:href="#path-3"/></mask><rect id="path-5" width="35.977" height="47.284" x=".105" y=".207" rx="1.899"/><mask id="mask-6" width="35.977" height="47.284" x="0" y="0" fill="#fff" maskContentUnits="userSpaceOnUse" maskUnits="objectBoundingBox"><use xlink:href="#path-5"/></mask><rect id="path-7" width="35.977" height="47.284" x=".105" y=".207" rx="1.899"/><mask id="mask-8" width="35.977" height="47.284" x="0" y="0" fill="#fff" maskContentUnits="userSpaceOnUse" maskUnits="objectBoundingBox"><use xlink:href="#path-7"/></mask><rect id="path-9" width="35.977" height="47.284" x=".105" y=".207" rx="1.899"/><filter id="filter-10" width="169.5%" height="152.9%" x="-34.7%" y="-18%" filterUnits="objectBoundingBox"><feOffset dx="0" dy="4" in="SourceAlpha" result="shadowOffsetOuter1"/><feGaussianBlur in="shadowOffsetOuter1" result="shadowBlurOuter1" stdDeviation="3.5"/><feComposite in="shadowBlurOuter1" in2="SourceAlpha" operator="out" result="shadowBlurOuter1"/><feColorMatrix in="shadowBlurOuter1" type="matrix" values="0 0 0 0 0 0 0 0 0 0 0 0 0 0 0 0 0 0 0.176036005 0"/></filter><mask id="mask-11" width="35.977" height="47.284" x="0" y="0" fill="#fff" maskContentUnits="userSpaceOnUse" maskUnits="objectBoundingBox"><use xlink:href="#path-9"/></mask><rect id="path-12" width="35.977" height="47.284" x=".105" y=".207" rx="1.899"/><mask id="mask-13" width="35.977" height="47.284" x="0" y="0" fill="#fff" maskContentUnits="userSpaceOnUse" maskUnits="objectBoundingBox"><use xlink:href="#path-12"/></mask><rect id="path-14" width="35.977" height="47.284" x=".105" y=".207" rx="1.899"/><mask id="mask-15" width="35.977" height="47.284" x="0" y="0" fill="#fff" maskContentUnits="userSpaceOnUse" maskUnits="objectBoundingBox"><use xlink:href="#path-14"/></mask><rect id="path-16" width="35.977" height="47.284" x=".105" y=".207" rx="1.899"/><mask id="mask-17" width="35.977" height="47.284" x="0" y="0" fill="#fff" maskContentUnits="userSpaceOnUse" maskUnits="objectBoundingBox"><use xlink:href="#path-16"/></mask><rect id="path-18" width="35.977" height="47.284" x=".105" y=".207" rx="1.899"/><mask id="mask-19" width="35.977" height="47.284" x="0" y="0" fill="#fff" maskContentUnits="userSpaceOnUse" maskUnits="objectBoundingBox"><use xlink:href="#path-18"/></mask><rect id="path-20" width="35.977" height="47.284" x=".105" y=".069" rx="1.899"/><mask id="mask-21" width="35.977" height="47.284" x="0" y="0" fill="#fff" maskContentUnits="userSpaceOnUse" maskUnits="objectBoundingBox"><use xlink:href="#path-20"/></mask><rect id="path-22" width="35.977" height="47.284" x=".105" y=".069" rx="1.899"/><mask id="mask-23" width="35.977" height="47.284" x="0" y="0" fill="#fff" maskContentUnits="userSpaceOnUse" maskUnits="objectBoundingBox"><use xlink:href="#path-22"/></mask><rect id="path-24" width="35.977" height="47.284" x=".105" y=".069" rx="1.899"/><mask id="mask-25" width="35.977" height="47.284" x="0" y="0" fill="#fff" maskContentUnits="userSpaceOnUse" maskUnits="objectBoundingBox"><use xlink:href="#path-24"/></mask><rect id="path-26" width="35.977" height="47.284" x=".105" y=".069" rx="1.899"/><mask id="mask-27" width="35.977" height="47.284" x="0" y="0" fill="#fff" maskContentUnits="userSpaceOnUse" maskUnits="objectBoundingBox"><use xlink:href="#path-26"/></mask></defs><g id="event-dropdown-copy-7" fill="none" fill-rule="evenodd" stroke="none" stroke-width="1" transform="translate(-759.000000, -213.000000)"><g id="Group-9" transform="translate(492.000000, 213.000000)"><g id="Group-11"><g id="Group-12"><g id="Group-13"><g id="Group-10" transform="translate(267.000000, 0.000000)"><g id="Group-3"><mask id="mask-2" fill="#fff"><use xlink:href="#path-1"/></mask><use id="Mask" fill="#D8D8D8" xlink:href="#path-1"/><g id="Group-2" mask="url(#mask-2)"><g transform="translate(27.350649, 50.493506)"><rect id="Rectangle" width="220.856" height="15.99" x="0" y="0" fill="#FFF"/><g id="Group" fill="none" stroke-width="1" transform="translate(0.000000, 15.989610)"><rect id="Rectangle-2" width="53.156" height="159.667" x="0" y="0" fill="#2E2E2E"/><rect id="Rectangle-2" width="53.156" height="70.609" x="0" y="125.054" fill="#383838"/><ellipse id="Oval" cx="6.645" cy="6.699" fill="#575757" rx="3.322" ry="3.35"/><rect id="Rectangle-3" width="21.041" height="2.233" x="14.396" y="5.583" fill="#575757"/><ellipse id="Oval" cx="6.645" cy="17.865" fill="#575757" rx="3.322" ry="3.35"/><rect id="Rectangle-3" width="21.041" height="2.233" x="14.396" y="16.748" fill="#575757"/><ellipse id="Oval" cx="6.645" cy="29.03" fill="#575757" rx="3.322" ry="3.35"/><rect id="Rectangle-3" width="21.041" height="2.233" x="14.396" y="27.914" fill="#575757"/><ellipse id="Oval" cx="6.645" cy="40.196" fill="#575757" rx="3.322" ry="3.35"/><rect id="Rectangle-3" width="21.041" height="2.233" x="14.396" y="39.079" fill="#575757"/><polygon id="Rectangle-4" fill="#2EA030" points="0 45.779 53.156 45.779 53.156 56.944 0 56.944"/><rect id="Rectangle-3-Copy" width="21.041" height="2.233" x="14.396" y="50.245" fill="#61B063"/><ellipse id="Oval-Copy" cx="6.645" cy="51.361" fill="#61B063" rx="3.322" ry="3.35"/><ellipse id="Oval-Copy-2" cx="6.645" cy="62.527" fill="#575757" rx="3.322" ry="3.35"/><rect id="Rectangle-3-Copy-2" width="21.041" height="2.233" x="14.396" y="61.41" fill="#575757"/><ellipse id="Oval-Copy-3" cx="6.645" cy="73.692" fill="#575757" rx="3.322" ry="3.35"/><rect id="Rectangle-3-Copy-3" width="21.041" height="2.233" x="14.396" y="72.576" fill="#575757"/><ellipse id="Oval-Copy-4" cx="6.645" cy="84.858" fill="#575757" rx="3.322" ry="3.35"/><rect id="Rectangle-3-Copy-4" width="21.041" height="2.233" x="14.396" y="83.741" fill="#575757"/><ellipse id="Oval-Copy-5" cx="6.645" cy="96.023" fill="#575757" rx="3.322" ry="3.35"/><rect id="Rectangle-3-Copy-5" width="21.041" height="2.233" x="14.396" y="94.907" fill="#575757"/></g><rect id="Rectangle-6" width="161.895" height="15.99" x="55.964" y="18.988" fill="#C6C6C6"/><rect id="Rectangle-6" width="161.895" height="218.753" x="55.964" y="18.988" fill="#FFF"/><rect id="Rectangle-7" width="19.987" height="2.998" x="60.96" y="25.983" fill="#2E2E2E" opacity=".306"/><rect id="Rectangle-8" width="18.988" height="8.994" x="194.873" y="22.985" fill="#3DBB3F" rx="1.461"/><rect id="Rectangle-15" width="7.995" height="6.995" x="7.995" y="3.997" fill="#D8D8D8" opacity=".41" rx="3.498"/><rect id="Rectangle-16" width="20.986" height="1.999" x="20.986" y="6.995" fill="#EFEFEF"/><rect id="Rectangle-17" width="36.976" height="15.99" x="52.966" y="0" fill="#D8D8D8" opacity=".396"/><rect id="Rectangle-17-Copy" width="36.976" height="15.99" x="88.942" y="0" fill="#D8D8D8" opacity=".21"/><rect id="Rectangle-18" width="17.988" height="1.999" x="65.957" y="6.995" fill="#D8D8D8" opacity=".452"/><rect id="Rectangle-18-Copy" width="17.988" height="1.999" x="102.933" y="6.995" fill="#D8D8D8" opacity=".452"/><circle id="Oval-2" cx="212.862" cy="8.994" r="2.998" fill="#D8D8D8" opacity=".588"/><rect id="Rectangle-19" width="8.994" height="1" x="197.871" y="7.995" fill="#D8D8D8" opacity=".588"/><rect id="Rectangle-19-Copy" width="8.994" height="1" x="183.881" y="7.995" fill="#D8D8D8" opacity=".588"/><g id="Group-17" fill="none" stroke-width="1" transform="translate(177.779221, 36.818182)"><use id="Rectangle-21-Copy-3" fill="#FFF" stroke="#979797" stroke-dasharray=".949" stroke-width="1.899" mask="url(#mask-4)" xlink:href="#path-3"/><text id="+" fill="#2E2E2E" font-family="Ubuntu" font-size="22.785" font-weight="normal" opacity=".139"><tspan x="12.097" y="30.428">+</tspan></text></g><g id="Group-16" fill="none" stroke-width="1" transform="translate(137.805195, 36.818182)"><use id="Rectangle-21-Copy-2" fill="#FFF" stroke="#979797" stroke-dasharray=".949" stroke-width="1.899" mask="url(#mask-6)" xlink:href="#path-5"/><text id="+-copy" fill="#2E2E2E" font-family="Ubuntu" font-size="22.785" font-weight="normal" opacity=".139"><tspan x="13.097" y="30.428">+</tspan></text></g><g id="Group-15" fill="none" stroke-width="1" transform="translate(97.831169, 36.818182)"><use id="Rectangle-21-Copy" fill="#FFF" stroke="#979797" stroke-dasharray=".949" stroke-width="1.899" mask="url(#mask-8)" xlink:href="#path-7"/><text id="+-copy-2" fill="#2E2E2E" font-family="Ubuntu" font-size="22.785" font-weight="normal" opacity=".139"><tspan x="12.097" y="30.428">+</tspan></text></g><g id="Group-14" fill="none" stroke-width="1" transform="translate(57.857143, 36.818182)"><g id="Rectangle-21" stroke-dasharray=".949"><use fill="#000" fill-opacity="1" filter="url(#filter-10)" xlink:href="#path-9"/><use fill="#FFF" fill-rule="evenodd" stroke="#979797" stroke-width="1.899" mask="url(#mask-11)" xlink:href="#path-9"/></g><text id="+-copy-3" fill="#2E2E2E" font-family="Ubuntu" font-size="22.785" font-weight="normal" opacity=".139"><tspan x="12.097" y="30.428">+</tspan></text></g><g id="Group-18" fill="none" stroke-width="1" transform="translate(177.779221, 89.415584)"><use id="Rectangle-21-Copy-3" fill="#FFF" stroke="#979797" stroke-dasharray=".949" stroke-width="1.899" mask="url(#mask-13)" xlink:href="#path-12"/><text id="+" fill="#2E2E2E" font-family="Ubuntu" font-size="22.785" font-weight="normal" opacity=".139"><tspan x="12.097" y="30.428">+</tspan></text></g><g id="Group-19" fill="none" stroke-width="1" transform="translate(137.805195, 89.415584)"><use id="Rectangle-21-Copy-2" fill="#FFF" stroke="#979797" stroke-dasharray=".949" stroke-width="1.899" mask="url(#mask-15)" xlink:href="#path-14"/><text id="+-copy" fill="#2E2E2E" font-family="Ubuntu" font-size="22.785" font-weight="normal" opacity=".139"><tspan x="13.097" y="30.428">+</tspan></text></g><g id="Group-20" fill="none" stroke-width="1" transform="translate(97.831169, 89.415584)"><use id="Rectangle-21-Copy" fill="#FFF" stroke="#979797" stroke-dasharray=".949" stroke-width="1.899" mask="url(#mask-17)" xlink:href="#path-16"/><text id="+-copy-2" fill="#2E2E2E" font-family="Ubuntu" font-size="22.785" font-weight="normal" opacity=".139"><tspan x="12.097" y="30.428">+</tspan></text></g><g id="Group-21" fill="none" stroke-width="1" transform="translate(57.857143, 89.415584)"><use id="Rectangle-21-Copy" fill="#FFF" stroke="#979797" stroke-dasharray=".949" stroke-width="1.899" mask="url(#mask-19)" xlink:href="#path-18"/><text id="+-copy-3" fill="#2E2E2E" font-family="Ubuntu" font-size="22.785" font-weight="normal" opacity=".139"><tspan x="12.097" y="30.428">+</tspan></text></g><g id="Group-25" fill="none" stroke-dasharray=".949" stroke-width="1" transform="translate(177.779221, 144.116883)"><use id="Rectangle-21-Copy-3" fill="#FFF" stroke="#979797" stroke-width="1.899" mask="url(#mask-21)" xlink:href="#path-20"/></g><g id="Group-24" fill="none" stroke-width="1" transform="translate(137.805195, 144.116883)"><use id="Rectangle-21-Copy-2" fill="#FFF" stroke="#979797" stroke-dasharray=".949" stroke-width="1.899" mask="url(#mask-23)" xlink:href="#path-22"/><text id="+-copy" fill="#2E2E2E" font-family="Ubuntu" font-size="22.785" font-weight="normal" opacity=".139"><tspan x="13.097" y="30.29">+</tspan></text></g><g id="Group-23" fill="none" stroke-width="1" transform="translate(97.831169, 144.116883)"><use id="Rectangle-21-Copy" fill="#FFF" stroke="#979797" stroke-dasharray=".949" stroke-width="1.899" mask="url(#mask-25)" xlink:href="#path-24"/><text id="+-copy-2" fill="#2E2E2E" font-family="Ubuntu" font-size="22.785" font-weight="normal" opacity=".139"><tspan x="12.097" y="30.29">+</tspan></text></g><g id="Group-22" fill="none" stroke-width="1" transform="translate(57.857143, 144.116883)"><use id="Rectangle-21-Copy" fill="#FFF" stroke="#979797" stroke-dasharray=".949" stroke-width="1.899" mask="url(#mask-27)" xlink:href="#path-26"/><text id="+-copy-3" fill="#2E2E2E" font-family="Ubuntu" font-size="22.785" font-weight="normal" opacity=".139"><tspan x="12.097" y="30.29">+</tspan></text></g></g></g></g></g></g></g></g></g></g></svg>