<svg xmlns="http://www.w3.org/2000/svg" xmlns:xlink="http://www.w3.org/1999/xlink" width="243" height="243" version="1.1" viewBox="0 0 243 243"><title>Group 5</title><desc>Created with Sketch.</desc><defs><circle id="path-1" cx="121.5" cy="121.5" r="121.5"/></defs><g id="Page-1" fill="none" fill-rule="evenodd" stroke="none" stroke-width="1"><g id="populator" transform="translate(-788.000000, -245.000000)"><g id="Group-5" transform="translate(788.000000, 245.000000)"><g id="Group-4"><g id="Group-6"><g id="Group-10"><g id="Group-3"><mask id="mask-2" fill="#fff"><use xlink:href="#path-1"/></mask><use id="Mask" fill="#D8D8D8" xlink:href="#path-1"/><circle id="Oval-Copy-3" cx="58.5" cy="222.5" r="34.5" fill="#FF8700" mask="url(#mask-2)"/><circle id="Oval-Copy-4" cx="86" cy="7" r="19" fill="#4EA2F2" mask="url(#mask-2)"/></g></g></g><g id="Group-2" transform="translate(67.000000, 67.000000)"><rect id="Rectangle" width="110" height="110" x="0" y="0" fill="#AFAFAF" rx="35"/><circle id="Oval" cx="54.5" cy="54.5" r="34.5" fill="#FFF"/><g id="Group" transform="translate(39.000000, 37.000000)"><rect id="Rectangle" width="16" height="24" x="8" y="2" fill="#000" fill-opacity="0" stroke="#000" stroke-width="4" rx="8"/><g id="iconmonstr-lock-4" fill="#000" transform="translate(0.000000, 14.000000)"><rect id="Rectangle" width="32" height="21" x="0" y="0" rx="7"/></g><path id="Combined-Shape" fill="#FFF" d="M15,25.8292943 C13.8348076,25.4174579 13,24.3062188 13,23 C13,21.3431458 14.3431458,20 16,20 C17.6568542,20 19,21.3431458 19,23 C19,24.3062188 18.1651924,25.4174579 17,25.8292943 L17,28 C17,28.5522847 16.5522847,29 16,29 C15.4477153,29 15,28.5522847 15,28 L15,25.8292943 Z"/></g></g></g><circle id="Oval" cx="206.5" cy="90.5" r="7.5" fill="#0DC1B8"/><circle id="Oval-Copy-2" cx="38.5" cy="159.5" r="9.5" fill="#FF8700"/><circle id="Oval-Copy" cx="186.5" cy="51.5" r="12.5" fill="#0DC1B8"/></g></g></g></svg>